<?xml version="1.0" encoding="UTF-8" standalone="no"?>
<svg xmlns="http://www.w3.org/2000/svg" width="1000" height="300">
    <!-- 系统名称 -->
    <rect x="450" y="20" width="120" height="40" fill="white" stroke="black" stroke-width="2"/>
    <text x="510" y="45" text-anchor="middle" font-family="宋体" font-size="14" fill="black">宿舍管理系统</text>
    
    <!-- 连接线 -->
    <line x1="510" y1="60" x2="510" y2="80" stroke="black" stroke-width="2"/>
    <line x1="250" y1="80" x2="770" y2="80" stroke="black" stroke-width="2"/>
    <line x1="250" y1="80" x2="250" y2="100" stroke="black" stroke-width="2"/>
    <line x1="770" y1="80" x2="770" y2="100" stroke="black" stroke-width="2"/>
    
    <!-- 用户类型 -->
    <rect x="200" y="100" width="100" height="30" fill="white" stroke="black" stroke-width="2"/>
    <text x="250" y="120" text-anchor="middle" font-family="宋体" font-size="14" fill="black">学生用户</text>
    
    <rect x="720" y="100" width="100" height="30" fill="white" stroke="black" stroke-width="2"/>
    <text x="770" y="120" text-anchor="middle" font-family="宋体" font-size="14" fill="black">管理员用户</text>
    
    <!-- 学生功能连接线 -->
    <line x1="90" y1="150" x2="410" y2="150" stroke="black" stroke-width="2"/>
    <line x1="250" y1="130" x2="250" y2="150" stroke="black" stroke-width="2"/>
    <line x1="90" y1="150" x2="90" y2="170" stroke="black" stroke-width="2"/>
    <line x1="170" y1="150" x2="170" y2="170" stroke="black" stroke-width="2"/>
    <line x1="250" y1="150" x2="250" y2="170" stroke="black" stroke-width="2"/>
    <line x1="330" y1="150" x2="330" y2="170" stroke="black" stroke-width="2"/>
    <line x1="410" y1="150" x2="410" y2="170" stroke="black" stroke-width="2"/>
    
    <!-- 管理员功能连接线 -->
    <line x1="610" y1="150" x2="930" y2="150" stroke="black" stroke-width="2"/>
    <line x1="770" y1="130" x2="770" y2="150" stroke="black" stroke-width="2"/>
    <line x1="610" y1="150" x2="610" y2="170" stroke="black" stroke-width="2"/>
    <line x1="690" y1="150" x2="690" y2="170" stroke="black" stroke-width="2"/>
    <line x1="770" y1="150" x2="770" y2="170" stroke="black" stroke-width="2"/>
    <line x1="850" y1="150" x2="850" y2="170" stroke="black" stroke-width="2"/>
    <line x1="930" y1="150" x2="930" y2="170" stroke="black" stroke-width="2"/>
    
    <!-- 学生功能模块 -->
    <rect x="70" y="170" width="40" height="100" fill="white" stroke="black" stroke-width="2"/>
    <text x="90" y="190" text-anchor="middle" font-family="宋体" font-size="12" fill="black">首</text>
    <text x="90" y="210" text-anchor="middle" font-family="宋体" font-size="12" fill="black">页</text>
    <text x="90" y="230" text-anchor="middle" font-family="宋体" font-size="12" fill="black">信</text>
    <text x="90" y="250" text-anchor="middle" font-family="宋体" font-size="12" fill="black">息</text>
    
    <rect x="150" y="170" width="40" height="100" fill="white" stroke="black" stroke-width="2"/>
    <text x="170" y="190" text-anchor="middle" font-family="宋体" font-size="12" fill="black">我</text>
    <text x="170" y="210" text-anchor="middle" font-family="宋体" font-size="12" fill="black">的</text>
    <text x="170" y="230" text-anchor="middle" font-family="宋体" font-size="12" fill="black">宿</text>
    <text x="170" y="250" text-anchor="middle" font-family="宋体" font-size="12" fill="black">舍</text>
    
    <rect x="230" y="170" width="40" height="100" fill="white" stroke="black" stroke-width="2"/>
    <text x="250" y="190" text-anchor="middle" font-family="宋体" font-size="12" fill="black">请</text>
    <text x="250" y="210" text-anchor="middle" font-family="宋体" font-size="12" fill="black">假</text>
    <text x="250" y="230" text-anchor="middle" font-family="宋体" font-size="12" fill="black">申</text>
    <text x="250" y="250" text-anchor="middle" font-family="宋体" font-size="12" fill="black">请</text>
    
    <rect x="310" y="170" width="40" height="100" fill="white" stroke="black" stroke-width="2"/>
    <text x="330" y="190" text-anchor="middle" font-family="宋体" font-size="12" fill="black">归</text>
    <text x="330" y="210" text-anchor="middle" font-family="宋体" font-size="12" fill="black">寝</text>
    <text x="330" y="230" text-anchor="middle" font-family="宋体" font-size="12" fill="black">申</text>
    <text x="330" y="250" text-anchor="middle" font-family="宋体" font-size="12" fill="black">请</text>

    <rect x="390" y="170" width="40" height="100" fill="white" stroke="black" stroke-width="2"/>
    <text x="410" y="190" text-anchor="middle" font-family="宋体" font-size="12" fill="black">水</text>
    <text x="410" y="210" text-anchor="middle" font-family="宋体" font-size="12" fill="black">电</text>
    <text x="410" y="230" text-anchor="middle" font-family="宋体" font-size="12" fill="black">缴</text>
    <text x="410" y="250" text-anchor="middle" font-family="宋体" font-size="12" fill="black">费</text>
    
    <!-- 管理员功能模块 -->
    <rect x="590" y="170" width="40" height="100" fill="white" stroke="black" stroke-width="2"/>
    <text x="610" y="190" text-anchor="middle" font-family="宋体" font-size="12" fill="black">控</text>
    <text x="610" y="210" text-anchor="middle" font-family="宋体" font-size="12" fill="black">制</text>
    <text x="610" y="230" text-anchor="middle" font-family="宋体" font-size="12" fill="black">台</text>

    
    <rect x="670" y="170" width="40" height="100" fill="white" stroke="black" stroke-width="2"/>
    <text x="690" y="190" text-anchor="middle" font-family="宋体" font-size="12" fill="black">学</text>
    <text x="690" y="210" text-anchor="middle" font-family="宋体" font-size="12" fill="black">生</text>
    <text x="690" y="230" text-anchor="middle" font-family="宋体" font-size="12" fill="black">管</text>
    <text x="690" y="250" text-anchor="middle" font-family="宋体" font-size="12" fill="black">理</text>
    
    <rect x="750" y="170" width="40" height="100" fill="white" stroke="black" stroke-width="2"/>
    <text x="770" y="190" text-anchor="middle" font-family="宋体" font-size="12" fill="black">请</text>
    <text x="770" y="210" text-anchor="middle" font-family="宋体" font-size="12" fill="black">假</text>
    <text x="770" y="230" text-anchor="middle" font-family="宋体" font-size="12" fill="black">审</text>
    <text x="770" y="250" text-anchor="middle" font-family="宋体" font-size="12" fill="black">批</text>
    
    <rect x="830" y="170" width="40" height="100" fill="white" stroke="black" stroke-width="2"/>
    <text x="850" y="190" text-anchor="middle" font-family="宋体" font-size="12" fill="black">归</text>
    <text x="850" y="210" text-anchor="middle" font-family="宋体" font-size="12" fill="black">寝</text>
    <text x="850" y="230" text-anchor="middle" font-family="宋体" font-size="12" fill="black">审</text>
    <text x="850" y="250" text-anchor="middle" font-family="宋体" font-size="12" fill="black">批</text>
    
    <rect x="910" y="170" width="40" height="100" fill="white" stroke="black" stroke-width="2"/>
    <text x="930" y="190" text-anchor="middle" font-family="宋体" font-size="12" fill="black">水</text>
    <text x="930" y="210" text-anchor="middle" font-family="宋体" font-size="12" fill="black">电</text>
    <text x="930" y="230" text-anchor="middle" font-family="宋体" font-size="12" fill="black">管</text>
    <text x="930" y="250" text-anchor="middle" font-family="宋体" font-size="12" fill="black">理</text>
</svg> 