<svg xmlns="http://www.w3.org/2000/svg" xmlns:xlink="http://www.w3.org/1999/xlink" contentStyleType="text/css" data-diagram-type="DESCRIPTION" height="314px" preserveAspectRatio="none" style="width:353px;height:314px;background:#FFFFFF;" version="1.1" viewBox="0 0 353 314" width="353px" zoomAndPan="magnify"><defs/><g><!--cluster ????????--><g class="cluster" data-entity="&#29992;&#25143;&#30331;&#24405;&#27880;&#20876;&#27169;&#22359;" data-source-line="10" data-uid="ent0004" id="cluster_&#29992;&#25143;&#30331;&#24405;&#27880;&#20876;&#27169;&#22359;"><rect fill="#FFFFFF" height="290" rx="2.5" ry="2.5" style="stroke:#000000;stroke-width:1;" width="155.03" x="192" y="12"/><text fill="#000000" font-family="Verdana" font-size="14" font-weight="bold" lengthAdjust="spacing" textLength="111.9995" x="213.5152" y="26.9951">&#29992;&#25143;&#30331;&#24405;&#27880;&#20876;&#27169;&#22359;</text></g><!--entity Login--><g class="entity" data-entity="Login" data-source-line="11" data-uid="ent0005" id="entity_Login"><ellipse cx="269.5078" cy="126.0036" fill="#FFFFFF" rx="42.5978" ry="14.5236" style="stroke:#000000;stroke-width:1;"/><text fill="#000000" font-family="Verdana" font-size="14" lengthAdjust="spacing" textLength="55.9998" x="241.5079" y="130.6521">&#29992;&#25143;&#30331;&#24405;</text></g><!--entity Register--><g class="entity" data-entity="Register" data-source-line="12" data-uid="ent0006" id="entity_Register"><ellipse cx="269.5078" cy="62.0036" fill="#FFFFFF" rx="42.5978" ry="14.5236" style="stroke:#000000;stroke-width:1;"/><text fill="#000000" font-family="Verdana" font-size="14" lengthAdjust="spacing" textLength="55.9998" x="241.5079" y="66.6521">&#29992;&#25143;&#27880;&#20876;</text></g><!--entity ForgotPassword--><g class="entity" data-entity="ForgotPassword" data-source-line="13" data-uid="ent0007" id="entity_ForgotPassword"><ellipse cx="269.5078" cy="190.0036" fill="#FFFFFF" rx="42.5978" ry="14.5236" style="stroke:#000000;stroke-width:1;"/><text fill="#000000" font-family="Verdana" font-size="14" lengthAdjust="spacing" textLength="55.9998" x="241.5079" y="194.6521">&#24536;&#35760;&#23494;&#30721;</text></g><!--entity Authenticate--><g class="entity" data-entity="Authenticate" data-source-line="14" data-uid="ent0008" id="entity_Authenticate"><ellipse cx="269.5142" cy="271.0028" fill="#FFFFFF" rx="61.5142" ry="14.7028" style="stroke:#000000;stroke-width:1;"/><text fill="#000000" font-family="Verdana" font-size="14" lengthAdjust="spacing" textLength="83.9996" x="227.5144" y="275.6513">&#39564;&#35777;&#29992;&#25143;&#36523;&#20221;</text></g><!--entity Guest--><g class="entity" data-entity="Guest" data-source-line="7" data-uid="ent0002" id="entity_Guest"><ellipse cx="45.9999" cy="96.35" fill="#FFFFFF" rx="8" ry="8" style="stroke:#000000;stroke-width:1;"/><path d="M45.9999,104.35 L45.9999,131.35 M32.9999,112.35 L58.9999,112.35 M45.9999,131.35 L32.9999,146.35 M45.9999,131.35 L58.9999,146.35" fill="none" style="stroke:#000000;stroke-width:1;"/><text fill="#000000" font-family="Verdana" font-size="14" lengthAdjust="spacing" textLength="55.9998" x="18" y="161.3451">&#26222;&#36890;&#29992;&#25143;</text></g><!--entity Server--><g class="entity" data-entity="Server" data-source-line="8" data-uid="ent0003" id="entity_Server"><ellipse cx="45.9998" cy="241.35" fill="#FFFFFF" rx="8" ry="8" style="stroke:#000000;stroke-width:1;"/><path d="M45.9998,249.35 L45.9998,276.35 M32.9998,257.35 L58.9998,257.35 M45.9998,276.35 L32.9998,291.35 M45.9998,276.35 L58.9998,291.35" fill="none" style="stroke:#000000;stroke-width:1;"/><text fill="#000000" font-family="Verdana" font-size="14" lengthAdjust="spacing" textLength="69.9997" x="11" y="306.3451">&#26381;&#21153;&#22120;&#31995;&#32479;</text></g><!--link Login to Authenticate--><g class="link" data-entity-1="Login" data-entity-2="Authenticate" data-source-line="16" data-uid="lnk9" id="link_Login_Authenticate"><path d="M229.72,120.43 C198.04,118.48 155.27,121.92 132,149.5 C94,194.55 177.1597,235.7353 229.2997,256.3353" fill="none" id="Login-to-Authenticate" style="stroke:#000000;stroke-width:1;stroke-dasharray:7.0,7.0;"/><polygon fill="#000000" points="234.88,258.54,227.9794,251.5128,230.2298,256.7027,225.0398,258.9531,234.88,258.54" style="stroke:#000000;stroke-width:1;"/><text fill="#000000" font-family="Verdana" font-size="13" lengthAdjust="spacing" textLength="63.0068" x="112" y="162.5669">&#171;include&#187;</text></g><!--link ForgotPassword to Authenticate--><g class="link" data-entity-1="ForgotPassword" data-entity-2="Authenticate" data-source-line="17" data-uid="lnk10" id="link_ForgotPassword_Authenticate"><path d="M269.51,204.76 C269.51,219.34 269.51,235.53 269.51,250.14" fill="none" id="ForgotPassword-to-Authenticate" style="stroke:#000000;stroke-width:1;stroke-dasharray:7.0,7.0;"/><polygon fill="#000000" points="269.51,256.14,273.51,247.14,269.51,251.14,265.51,247.14,269.51,256.14" style="stroke:#000000;stroke-width:1;"/><text fill="#000000" font-family="Verdana" font-size="13" lengthAdjust="spacing" textLength="63.0068" x="226.51" y="234.9769">&#171;include&#187;</text></g><!--link Guest to Login--><g class="link" data-entity-1="Guest" data-entity-2="Login" data-source-line="19" data-uid="lnk11" id="link_Guest_Login"><path d="M74.16,126 C112.29,126 176,126 220.75,126" fill="none" id="Guest-to-Login" style="stroke:#000000;stroke-width:1;"/><polygon fill="#000000" points="226.75,126,217.75,122,221.75,126,217.75,130,226.75,126" style="stroke:#000000;stroke-width:1;"/></g><!--link Guest to Register--><g class="link" data-entity-1="Guest" data-entity-2="Register" data-source-line="20" data-uid="lnk12" id="link_Guest_Register"><path d="M74.39,113.82 C85.6,109.12 98.78,103.93 111,100 C151.7,86.9 193.7269,77.1875 225.9269,70.4575" fill="none" id="Guest-to-Register" style="stroke:#000000;stroke-width:1;"/><polygon fill="#000000" points="231.8,69.23,222.172,67.1559,226.9058,70.2529,223.8087,74.9867,231.8,69.23" style="stroke:#000000;stroke-width:1;"/></g><!--link Guest to ForgotPassword--><g class="link" data-entity-1="Guest" data-entity-2="ForgotPassword" data-source-line="21" data-uid="lnk13" id="link_Guest_ForgotPassword"><path d="M74.21,147.69 C85.07,155.29 98.06,163.13 111,168 C148.47,182.1 188.0397,186.9386 220.4997,188.7886" fill="none" id="Guest-to-ForgotPassword" style="stroke:#000000;stroke-width:1;"/><polygon fill="#000000" points="226.49,189.13,217.7322,184.6244,221.4981,188.8455,217.277,192.6114,226.49,189.13" style="stroke:#000000;stroke-width:1;"/></g><!--link Server to Authenticate--><g class="link" data-entity-1="Server" data-entity-2="Authenticate" data-source-line="23" data-uid="lnk14" id="link_Server_Authenticate"><path d="M81.13,271 C114.74,271 160.83,271 201.57,271" fill="none" id="Server-to-Authenticate" style="stroke:#000000;stroke-width:1;"/><polygon fill="#000000" points="207.57,271,198.57,267,202.57,271,198.57,275,207.57,271" style="stroke:#000000;stroke-width:1;"/></g><!--SRC=[XP31IiD048Rl-nHZxlK1f0IywCM3s2TOaccoDDqjknkBY60lHQJU5AqesbjGQ8KU2eRYovYaVGlN3RIfFGXpcl-R-UUV7HrY6w4JKSP9X4qDMe1aGQZ1Pn8zpGGdgiLuXqhQXWxrMZJ0XZwB47vboeC8Au0AgI-wZ0VGf96gAct1XHTAOToqZ94GwcaXmSc7u-NbOt6Rv5Sp1wY2mnYLNgbFDzdrA1icnJGjqXSBD52UeYHavGzEELuCqsn-bq-Jh3_8ar7sVE_0EG685NfK_S7igYCHcDnRHBd24YSOCAMDNGNAlXuMuuziqYzUUnOw438G-fWgrHNIhwBBjy5YqYktBZxVlzEv7TYFpT-vPXxLQ71JzXBOTJSas8DwdN4lYdrqNKDj6lsBcxBVX5hDNMLTTohPrisjBARAZrjvu_AB7m00]--></g></svg>