<?xml version="1.0" encoding="UTF-8" standalone="no"?>
<svg xmlns="http://www.w3.org/2000/svg" width="1000" height="300">
    <!-- 系统名称 -->
    <rect x="435" y="20" width="150" height="40" fill="white" stroke="black" stroke-width="2"/>
    <text x="510" y="45" text-anchor="middle" font-family="宋体" font-size="14" fill="black">小蓝猫大学生心理助手</text>
    
    <!-- 连接线 -->
    <line x1="510" y1="60" x2="510" y2="80" stroke="black" stroke-width="2"/>
    <line x1="270" y1="80" x2="750" y2="80" stroke="black" stroke-width="2"/>
    <line x1="270" y1="80" x2="270" y2="100" stroke="black" stroke-width="2"/>
    <line x1="390" y1="80" x2="390" y2="100" stroke="black" stroke-width="2"/>
    <line x1="510" y1="80" x2="510" y2="100" stroke="black" stroke-width="2"/>
    <line x1="630" y1="80" x2="630" y2="100" stroke="black" stroke-width="2"/>
    <line x1="750" y1="80" x2="750" y2="100" stroke="black" stroke-width="2"/>

    
    <!-- 功能模块 -->
 
    <rect x="250" y="100" width="40" height="100" fill="white" stroke="black" stroke-width="2"/>
    <text x="270" y="120" text-anchor="middle" font-family="宋体" font-size="12" fill="black">登</text>
    <text x="270" y="140" text-anchor="middle" font-family="宋体" font-size="12" fill="black">陆</text>
    <text x="270" y="160" text-anchor="middle" font-family="宋体" font-size="12" fill="black">注</text>
    <text x="270" y="180" text-anchor="middle" font-family="宋体" font-size="12" fill="black">册</text>
    
    <rect x="370" y="100" width="40" height="100" fill="white" stroke="black" stroke-width="2"/>
    <text x="390" y="120" text-anchor="middle" font-family="宋体" font-size="12" fill="black">A</text>
    <text x="390" y="140" text-anchor="middle" font-family="宋体" font-size="12" fill="black">I</text>
    <text x="390" y="160" text-anchor="middle" font-family="宋体" font-size="12" fill="black">咨</text>
    <text x="390" y="180" text-anchor="middle" font-family="宋体" font-size="12" fill="black">询</text>
    
    <rect x="490" y="100" width="40" height="100" fill="white" stroke="black" stroke-width="2"/>
    <text x="510" y="120" text-anchor="middle" font-family="宋体" font-size="12" fill="black">心</text>
    <text x="510" y="140" text-anchor="middle" font-family="宋体" font-size="12" fill="black">理</text>
    <text x="510" y="160" text-anchor="middle" font-family="宋体" font-size="12" fill="black">测</text>
    <text x="510" y="180" text-anchor="middle" font-family="宋体" font-size="12" fill="black">试</text>
    
    <rect x="610" y="100" width="40" height="100" fill="white" stroke="black" stroke-width="2"/>
    <text x="630" y="120" text-anchor="middle" font-family="宋体" font-size="12" fill="black">心</text>
    <text x="630" y="140" text-anchor="middle" font-family="宋体" font-size="12" fill="black">理</text>
    <text x="630" y="160" text-anchor="middle" font-family="宋体" font-size="12" fill="black">资</text>
    <text x="630" y="180" text-anchor="middle" font-family="宋体" font-size="12" fill="black">讯</text>

    <rect x="730" y="100" width="40" height="100" fill="white" stroke="black" stroke-width="2"/>
    <text x="750" y="120" text-anchor="middle" font-family="宋体" font-size="12" fill="black">个</text>
    <text x="750" y="140" text-anchor="middle" font-family="宋体" font-size="12" fill="black">人</text>
    <text x="750" y="160" text-anchor="middle" font-family="宋体" font-size="12" fill="black">中</text>
    <text x="750" y="180" text-anchor="middle" font-family="宋体" font-size="12" fill="black">心</text>
</svg> 