<svg xmlns="http://www.w3.org/2000/svg" xmlns:xlink="http://www.w3.org/1999/xlink" contentStyleType="text/css" data-diagram-type="CLASS" height="582px" preserveAspectRatio="none" style="width:538px;height:582px;background:#FFFFFF;" version="1.1" viewBox="0 0 538 582" width="538px" zoomAndPan="magnify"><defs/><g><!--class Message--><g class="entity" data-entity="Message" data-source-line="17" data-uid="ent0002" id="entity_Message"><rect fill="#FFFFFF" height="158.0781" rx="2.5" ry="2.5" style="stroke:#000000;stroke-width:1;" width="202.668" x="179.72" y="416.97"/><ellipse cx="246.6243" cy="430.97" fill="#FFFFFF" rx="9" ry="9" style="stroke:#000000;stroke-width:1;"/><path d="M249.593,436.6106 Q249.0149,436.9075 248.3743,437.0481 Q247.7337,437.2044 247.0305,437.2044 Q244.5305,437.2044 243.2024,435.5637 Q241.8899,433.9075 241.8899,430.7825 Q241.8899,427.6575 243.2024,426.0012 Q244.5305,424.345 247.0305,424.345 Q247.7337,424.345 248.3743,424.5012 Q249.0305,424.6575 249.593,424.9544 L249.593,427.6731 Q248.968,427.095 248.3743,426.8294 Q247.7805,426.5481 247.1555,426.5481 Q245.8118,426.5481 245.1243,427.6262 Q244.4368,428.6887 244.4368,430.7825 Q244.4368,432.8762 245.1243,433.9544 Q245.8118,435.0169 247.1555,435.0169 Q247.7805,435.0169 248.3743,434.7512 Q248.968,434.47 249.593,433.8919 L249.593,436.6106 Z " fill="#000000"/><text fill="#000000" font-family="Times New Roman" font-size="14" lengthAdjust="spacing" textLength="61.3594" x="264.1243" y="435.8167">Message</text><line style="stroke:#000000;stroke-width:1;" x1="180.72" x2="381.388" y1="444.97" y2="444.97"/><text fill="#000000" font-family="Times New Roman" font-size="14" lengthAdjust="spacing" textLength="57.21" x="185.72" y="461.9651">-id: long</text><text fill="#000000" font-family="Times New Roman" font-size="14" lengthAdjust="spacing" textLength="109.6006" x="185.72" y="478.262">-content: String</text><text fill="#000000" font-family="Times New Roman" font-size="14" lengthAdjust="spacing" textLength="119.9502" x="185.72" y="494.5589">-timestamp: long</text><text fill="#000000" font-family="Times New Roman" font-size="14" lengthAdjust="spacing" textLength="94.8418" x="185.72" y="510.8557">-isAi: boolean</text><line style="stroke:#000000;stroke-width:1;" x1="180.72" x2="381.388" y1="518.1575" y2="518.1575"/><text fill="#000000" font-family="Times New Roman" font-size="14" lengthAdjust="spacing" textLength="126.0615" x="185.72" y="535.1526">+getters/setters()</text><text fill="#000000" font-family="Times New Roman" font-size="14" lengthAdjust="spacing" textLength="84.0137" x="185.72" y="551.4495">+Message()</text><text fill="#000000" font-family="Times New Roman" font-size="14" lengthAdjust="spacing" textLength="190.668" x="185.72" y="567.7464">+Message(String, boolean)</text></g><!--class ChatDbHelper--><g class="entity" data-entity="ChatDbHelper" data-source-line="27" data-uid="ent0003" id="entity_ChatDbHelper"><rect fill="#FFFFFF" height="125.4844" rx="2.5" ry="2.5" style="stroke:#000000;stroke-width:1;" width="262.1133" x="12" y="214.49"/><ellipse cx="89.9717" cy="228.49" fill="#FFFFFF" rx="9" ry="9" style="stroke:#000000;stroke-width:1;"/><path d="M92.9404,234.1306 Q92.3623,234.4275 91.7217,234.5681 Q91.0811,234.7244 90.3779,234.7244 Q87.8779,234.7244 86.5498,233.0837 Q85.2373,231.4275 85.2373,228.3025 Q85.2373,225.1775 86.5498,223.5212 Q87.8779,221.865 90.3779,221.865 Q91.0811,221.865 91.7217,222.0212 Q92.3779,222.1775 92.9404,222.4744 L92.9404,225.1931 Q92.3154,224.615 91.7217,224.3494 Q91.1279,224.0681 90.5029,224.0681 Q89.1592,224.0681 88.4717,225.1462 Q87.7842,226.2087 87.7842,228.3025 Q87.7842,230.3962 88.4717,231.4744 Q89.1592,232.5369 90.5029,232.5369 Q91.1279,232.5369 91.7217,232.2712 Q92.3154,231.99 92.9404,231.4119 L92.9404,234.1306 Z " fill="#000000"/><text fill="#000000" font-family="Times New Roman" font-size="14" lengthAdjust="spacing" textLength="98.6699" x="107.4717" y="233.3367">ChatDbHelper</text><line style="stroke:#000000;stroke-width:1;" x1="13" x2="273.1133" y1="242.49" y2="242.49"/><text fill="#000000" font-family="Times New Roman" font-size="14" lengthAdjust="spacing" textLength="179.375" x="18" y="259.4851">-DATABASE_NAME: String</text><text fill="#000000" font-family="Times New Roman" font-size="14" lengthAdjust="spacing" textLength="177.5293" x="18" y="275.782">-DATABASE_VERSION: int</text><text fill="#000000" font-family="Times New Roman" font-size="14" lengthAdjust="spacing" textLength="18.4023" x="18" y="292.0789">-...</text><line style="stroke:#000000;stroke-width:1;" x1="13" x2="273.1133" y1="299.3806" y2="299.3806"/><text fill="#000000" font-family="Times New Roman" font-size="14" lengthAdjust="spacing" textLength="224.6699" x="18" y="316.3757">+insertMessage(Message): long</text><text fill="#000000" font-family="Times New Roman" font-size="14" lengthAdjust="spacing" textLength="250.1133" x="18" y="332.6726">+getAllMessages(): List&lt;Message&gt;</text></g><!--class AiChatFragment--><g class="entity" data-entity="AiChatFragment" data-source-line="35" data-uid="ent0004" id="entity_AiChatFragment"><rect fill="#FFFFFF" height="125.4844" rx="2.5" ry="2.5" style="stroke:#000000;stroke-width:1;" width="262.0723" x="150.02" y="12"/><ellipse cx="220.2705" cy="26" fill="#FFFFFF" rx="9" ry="9" style="stroke:#000000;stroke-width:1;"/><path d="M223.2392,31.6406 Q222.6611,31.9375 222.0205,32.0781 Q221.3799,32.2344 220.6767,32.2344 Q218.1767,32.2344 216.8486,30.5938 Q215.5361,28.9375 215.5361,25.8125 Q215.5361,22.6875 216.8486,21.0313 Q218.1767,19.375 220.6767,19.375 Q221.3799,19.375 222.0205,19.5313 Q222.6767,19.6875 223.2392,19.9844 L223.2392,22.7031 Q222.6142,22.125 222.0205,21.8594 Q221.4267,21.5781 220.8017,21.5781 Q219.458,21.5781 218.7705,22.6563 Q218.083,23.7188 218.083,25.8125 Q218.083,27.9063 218.7705,28.9844 Q219.458,30.0469 220.8017,30.0469 Q221.4267,30.0469 222.0205,29.7813 Q222.6142,29.5 223.2392,28.9219 L223.2392,31.6406 Z " fill="#000000"/><text fill="#000000" font-family="Times New Roman" font-size="14" lengthAdjust="spacing" textLength="114.0713" x="237.7705" y="30.8467">AiChatFragment</text><line style="stroke:#000000;stroke-width:1;" x1="151.02" x2="411.0923" y1="40" y2="40"/><text fill="#000000" font-family="Times New Roman" font-size="14" lengthAdjust="spacing" textLength="176.9482" x="156.02" y="56.9951">-dbHelper: ChatDbHelper</text><text fill="#000000" font-family="Times New Roman" font-size="14" lengthAdjust="spacing" textLength="250.0723" x="156.02" y="73.292">-messageAdapter: MessageAdapter</text><line style="stroke:#000000;stroke-width:1;" x1="151.02" x2="411.0923" y1="80.5938" y2="80.5938"/><text fill="#000000" font-family="Times New Roman" font-size="14" lengthAdjust="spacing" textLength="176.4971" x="156.02" y="97.5889">+onCreateView(...): View</text><text fill="#000000" font-family="Times New Roman" font-size="14" lengthAdjust="spacing" textLength="181.4805" x="156.02" y="113.8857">+onViewCreated(...): void</text><text fill="#000000" font-family="Times New Roman" font-size="14" lengthAdjust="spacing" textLength="156.4746" x="156.02" y="130.1826">+sendMessage(): void</text></g><!--class MessageAdapter--><g class="entity" data-entity="MessageAdapter" data-source-line="43" data-uid="ent0005" id="entity_MessageAdapter"><rect fill="#FFFFFF" height="92.8906" rx="2.5" ry="2.5" style="stroke:#000000;stroke-width:1;" width="222.5195" x="308.8" y="230.78"/><ellipse cx="357.736" cy="244.78" fill="#FFFFFF" rx="9" ry="9" style="stroke:#000000;stroke-width:1;"/><path d="M360.7048,250.4206 Q360.1267,250.7175 359.486,250.8581 Q358.8454,251.0144 358.1423,251.0144 Q355.6423,251.0144 354.3142,249.3737 Q353.0017,247.7175 353.0017,244.5925 Q353.0017,241.4675 354.3142,239.8112 Q355.6423,238.155 358.1423,238.155 Q358.8454,238.155 359.486,238.3112 Q360.1423,238.4675 360.7048,238.7644 L360.7048,241.4831 Q360.0798,240.905 359.486,240.6394 Q358.8923,240.3581 358.2673,240.3581 Q356.9235,240.3581 356.236,241.4362 Q355.5485,242.4987 355.5485,244.5925 Q355.5485,246.6862 356.236,247.7644 Q356.9235,248.8269 358.2673,248.8269 Q358.8923,248.8269 359.486,248.5612 Q360.0798,248.28 360.7048,247.7019 L360.7048,250.4206 Z " fill="#000000"/><text fill="#000000" font-family="Times New Roman" font-size="14" lengthAdjust="spacing" textLength="117.1475" x="375.236" y="249.6267">MessageAdapter</text><line style="stroke:#000000;stroke-width:1;" x1="309.8" x2="530.3195" y1="258.78" y2="258.78"/><text fill="#000000" font-family="Times New Roman" font-size="14" lengthAdjust="spacing" textLength="193.7236" x="314.8" y="275.7751">-messages: List&lt;Message&gt;</text><line style="stroke:#000000;stroke-width:1;" x1="309.8" x2="530.3195" y1="283.0769" y2="283.0769"/><text fill="#000000" font-family="Times New Roman" font-size="14" lengthAdjust="spacing" textLength="210.5195" x="314.8" y="300.072">+addMessage(Message): void</text><text fill="#000000" font-family="Times New Roman" font-size="14" lengthAdjust="spacing" textLength="203.2598" x="314.8" y="316.3689">+onBindViewHolder(...): void</text></g><!--link AiChatFragment to ChatDbHelper--><g class="link" data-entity-1="AiChatFragment" data-entity-2="ChatDbHelper" data-source-line="49" data-uid="lnk6" id="link_AiChatFragment_ChatDbHelper"><path codeLine="49" d="M238.34,137.81 C221.64,162.07 205.9225,184.9081 189.2125,209.1781" fill="none" id="AiChatFragment-to-ChatDbHelper" style="stroke:#000000;stroke-width:1;"/><polygon fill="#000000" points="185.81,214.12,194.2084,208.9755,188.6455,210.0017,187.6192,204.4387,185.81,214.12" style="stroke:#000000;stroke-width:1;"/><text fill="#000000" font-family="Times New Roman" font-size="13" lengthAdjust="spacing" textLength="29.7832" x="218.06" y="180.5569">uses</text></g><!--link AiChatFragment to MessageAdapter--><g class="link" data-entity-1="AiChatFragment" data-entity-2="MessageAdapter" data-source-line="50" data-uid="lnk7" id="link_AiChatFragment_MessageAdapter"><path codeLine="50" d="M324.09,137.81 C344.82,167.71 365.8211,198.0094 384.8411,225.4394" fill="none" id="AiChatFragment-to-MessageAdapter" style="stroke:#000000;stroke-width:1;"/><polygon fill="#000000" points="388.26,230.37,386.4187,220.6948,385.4109,226.2611,379.8446,225.2533,388.26,230.37" style="stroke:#000000;stroke-width:1;"/><text fill="#000000" font-family="Times New Roman" font-size="13" lengthAdjust="spacing" textLength="29.7832" x="355.06" y="180.5569">uses</text></g><!--link MessageAdapter to Message--><g class="link" data-entity-1="MessageAdapter" data-entity-2="Message" data-source-line="51" data-uid="lnk8" id="link_MessageAdapter_Message"><path codeLine="51" d="M390.75,323.94 C373.54,350.77 354.5688,380.3592 334.6388,411.4392" fill="none" id="MessageAdapter-to-Message" style="stroke:#000000;stroke-width:1;"/><polygon fill="#000000" points="331.4,416.49,339.6254,411.0731,334.099,412.281,332.891,406.7547,331.4,416.49" style="stroke:#000000;stroke-width:1;"/><text fill="#000000" font-family="Times New Roman" font-size="13" lengthAdjust="spacing" textLength="76.0894" x="359.06" y="383.0369">depends on</text></g><!--link ChatDbHelper to Message--><g class="link" data-entity-1="ChatDbHelper" data-entity-2="Message" data-source-line="52" data-uid="lnk9" id="link_ChatDbHelper_Message"><path codeLine="52" d="M182.6,340.35 C197.73,364.12 211.9668,386.4893 227.9468,411.5793" fill="none" id="ChatDbHelper-to-Message" style="stroke:#000000;stroke-width:1;"/><polygon fill="#000000" points="231.17,416.64,229.709,406.9001,228.484,412.4227,222.9614,411.1977,231.17,416.64" style="stroke:#000000;stroke-width:1;"/><text fill="#000000" font-family="Times New Roman" font-size="13" lengthAdjust="spacing" textLength="57.3828" x="213.06" y="383.0369">operates</text></g><!--SRC=[dPFHQzim4CRV_LTeVMhOaktPZ8AIfhImf52Nxd4eqTKMbNL6TrveI__toP7gsSuOOtbnz7sVxdvtnX-uWXf4OvLn6JqProYlQb6ZmttbCLZiMnWu6XvLQ_aA7MzLiC_kJGqajd0GTrWhTpR8xgqYaipUx5g6cpswmho0-3A8KAKq7emhnQEo1DdqjdZDHFWjrVwfzDWwlKABNdol34Dqq6lmKLtQ43kgqdiy3CMtayh_CS6_NoaOF20_Dt-xayK9Dq2aIaYJpeNHkR3eodGCMsDmd8iYKFGgTyLOrSqeQqYQNEmGBIXtr3wA4ZZ0q6UAp_DPqbFRatDiy-czognRNGHTLOelTzTW6_0zxQMybqjPh7zivMOzWUozX_LTSNExpOLndBp5Of4Q6qVW-RrzUiu6SnrdaDOcAuoGYs-6-6iIBduZIjD1NdbLrc5dFQHErFbeXcJMiOhKgk4kiXcT4m6wbGV5y63WS1xO0qBtjtUxGqpePFz4evDDu7I_xkIyJLv_QjSZ9ogQZXehAgrF5pReY6vfdEwWhj66xsF853fFrZIVNunVRYvQ0lfJR4ARWXDr40m93KsOdm9JDceoJc6GmlRe5m00]--></g></svg>