<svg xmlns="http://www.w3.org/2000/svg" xmlns:xlink="http://www.w3.org/1999/xlink" contentStyleType="text/css" data-diagram-type="CLASS" height="719px" preserveAspectRatio="none" style="width:457px;height:719px;background:#FFFFFF;" version="1.1" viewBox="0 0 457 719" width="457px" zoomAndPan="magnify"><defs/><g><!--class User--><g class="entity" data-entity="User" data-source-line="17" data-uid="ent0002" id="entity_User"><rect fill="#FFFFFF" height="125.4844" rx="2.5" ry="2.5" style="stroke:#000000;stroke-width:1;" width="168.0508" x="60.96" y="586.86"/><ellipse cx="125.2803" cy="600.86" fill="#FFFFFF" rx="9" ry="9" style="stroke:#000000;stroke-width:1;"/><path d="M128.2491,606.5006 Q127.6709,606.7975 127.0303,606.9381 Q126.3897,607.0944 125.6866,607.0944 Q123.1866,607.0944 121.8584,605.4538 Q120.5459,603.7975 120.5459,600.6725 Q120.5459,597.5475 121.8584,595.8913 Q123.1866,594.235 125.6866,594.235 Q126.3897,594.235 127.0303,594.3913 Q127.6866,594.5475 128.2491,594.8444 L128.2491,597.5631 Q127.6241,596.985 127.0303,596.7194 Q126.4366,596.4381 125.8116,596.4381 Q124.4678,596.4381 123.7803,597.5163 Q123.0928,598.5788 123.0928,600.6725 Q123.0928,602.7663 123.7803,603.8444 Q124.4678,604.9069 125.8116,604.9069 Q126.4366,604.9069 127.0303,604.6413 Q127.6241,604.36 128.2491,603.7819 L128.2491,606.5006 Z " fill="#000000"/><text fill="#000000" font-family="Times New Roman" font-size="14" lengthAdjust="spacing" textLength="31.9102" x="142.7803" y="605.7067">User</text><line style="stroke:#000000;stroke-width:1;" x1="61.96" x2="228.0108" y1="614.86" y2="614.86"/><text fill="#000000" font-family="Times New Roman" font-size="14" lengthAdjust="spacing" textLength="57.21" x="66.96" y="631.8551">-id: long</text><text fill="#000000" font-family="Times New Roman" font-size="14" lengthAdjust="spacing" textLength="126.2393" x="66.96" y="648.152">-username: String</text><text fill="#000000" font-family="Times New Roman" font-size="14" lengthAdjust="spacing" textLength="156.0508" x="66.96" y="664.4489">-phoneNumber: String</text><text fill="#000000" font-family="Times New Roman" font-size="14" lengthAdjust="spacing" textLength="101.2676" x="66.96" y="680.7457">-avatar: String</text><line style="stroke:#000000;stroke-width:1;" x1="61.96" x2="228.0108" y1="688.0475" y2="688.0475"/><text fill="#000000" font-family="Times New Roman" font-size="14" lengthAdjust="spacing" textLength="126.0615" x="66.96" y="705.0426">+getters/setters()</text></g><!--class UserProfileFragment--><g class="entity" data-entity="UserProfileFragment" data-source-line="25" data-uid="ent0003" id="entity_UserProfileFragment"><rect fill="#FFFFFF" height="125.4844" rx="2.5" ry="2.5" style="stroke:#000000;stroke-width:1;" width="265.9619" x="12" y="12"/><ellipse cx="69.2896" cy="26" fill="#FFFFFF" rx="9" ry="9" style="stroke:#000000;stroke-width:1;"/><path d="M72.2583,31.6406 Q71.6802,31.9375 71.0396,32.0781 Q70.3989,32.2344 69.6958,32.2344 Q67.1958,32.2344 65.8677,30.5938 Q64.5552,28.9375 64.5552,25.8125 Q64.5552,22.6875 65.8677,21.0313 Q67.1958,19.375 69.6958,19.375 Q70.3989,19.375 71.0396,19.5313 Q71.6958,19.6875 72.2583,19.9844 L72.2583,22.7031 Q71.6333,22.125 71.0396,21.8594 Q70.4458,21.5781 69.8208,21.5781 Q68.4771,21.5781 67.7896,22.6563 Q67.1021,23.7188 67.1021,25.8125 Q67.1021,27.9063 67.7896,28.9844 Q68.4771,30.0469 69.8208,30.0469 Q70.4458,30.0469 71.0396,29.7813 Q71.6333,29.5 72.2583,28.9219 L72.2583,31.6406 Z " fill="#000000"/><text fill="#000000" font-family="Times New Roman" font-size="14" lengthAdjust="spacing" textLength="143.8828" x="86.7896" y="30.8467">UserProfileFragment</text><line style="stroke:#000000;stroke-width:1;" x1="13" x2="276.9619" y1="40" y2="40"/><text fill="#000000" font-family="Times New Roman" font-size="14" lengthAdjust="spacing" textLength="76.665" x="18" y="56.9951">-user: User</text><text fill="#000000" font-family="Times New Roman" font-size="14" lengthAdjust="spacing" textLength="253.9619" x="18" y="73.292">-profileViewModel: ProfileViewModel</text><line style="stroke:#000000;stroke-width:1;" x1="13" x2="276.9619" y1="80.5938" y2="80.5938"/><text fill="#000000" font-family="Times New Roman" font-size="14" lengthAdjust="spacing" textLength="176.4971" x="18" y="97.5889">+onCreateView(...): View</text><text fill="#000000" font-family="Times New Roman" font-size="14" lengthAdjust="spacing" textLength="154.8613" x="18" y="113.8857">+updateProfile(): void</text><text fill="#000000" font-family="Times New Roman" font-size="14" lengthAdjust="spacing" textLength="156.707" x="18" y="130.1826">+loadUserData(): void</text></g><!--class ProfileViewModel--><g class="entity" data-entity="ProfileViewModel" data-source-line="33" data-uid="ent0004" id="entity_ProfileViewModel"><rect fill="#FFFFFF" height="109.1875" rx="2.5" ry="2.5" style="stroke:#000000;stroke-width:1;" width="281.6367" x="169.16" y="214.48"/><ellipse cx="246.4037" cy="228.48" fill="#FFFFFF" rx="9" ry="9" style="stroke:#000000;stroke-width:1;"/><path d="M249.3724,234.1206 Q248.7943,234.4175 248.1537,234.5581 Q247.513,234.7144 246.8099,234.7144 Q244.3099,234.7144 242.9818,233.0738 Q241.6693,231.4175 241.6693,228.2925 Q241.6693,225.1675 242.9818,223.5113 Q244.3099,221.855 246.8099,221.855 Q247.513,221.855 248.1537,222.0113 Q248.8099,222.1675 249.3724,222.4644 L249.3724,225.1831 Q248.7474,224.605 248.1537,224.3394 Q247.5599,224.0581 246.9349,224.0581 Q245.5912,224.0581 244.9037,225.1363 Q244.2162,226.1988 244.2162,228.2925 Q244.2162,230.3863 244.9037,231.4644 Q245.5912,232.5269 246.9349,232.5269 Q247.5599,232.5269 248.1537,232.2613 Q248.7474,231.98 249.3724,231.4019 L249.3724,234.1206 Z " fill="#000000"/><text fill="#000000" font-family="Times New Roman" font-size="14" lengthAdjust="spacing" textLength="119.6494" x="263.9037" y="233.3267">ProfileViewModel</text><line style="stroke:#000000;stroke-width:1;" x1="170.16" x2="449.7967" y1="242.48" y2="242.48"/><text fill="#000000" font-family="Times New Roman" font-size="14" lengthAdjust="spacing" textLength="226.8096" x="175.16" y="259.4751">-userRepository: UserRepository</text><text fill="#000000" font-family="Times New Roman" font-size="14" lengthAdjust="spacing" textLength="269.6367" x="175.16" y="275.772">-_userProfile: MutableLiveData&lt;User&gt;</text><line style="stroke:#000000;stroke-width:1;" x1="170.16" x2="449.7967" y1="283.0738" y2="283.0738"/><text fill="#000000" font-family="Times New Roman" font-size="14" lengthAdjust="spacing" textLength="248.1924" x="175.16" y="300.0689">+getUserProfile(): LiveData&lt;User&gt;</text><text fill="#000000" font-family="Times New Roman" font-size="14" lengthAdjust="spacing" textLength="218.6816" x="175.16" y="316.3657">+updateUserProfile(User): void</text></g><!--class UserRepository--><g class="entity" data-entity="UserRepository" data-source-line="40" data-uid="ent0005" id="entity_UserRepository"><rect fill="#FFFFFF" height="109.1875" rx="2.5" ry="2.5" style="stroke:#000000;stroke-width:1;" width="187.3281" x="192.32" y="400.67"/><ellipse cx="228.8756" cy="414.67" fill="#FFFFFF" rx="9" ry="9" style="stroke:#000000;stroke-width:1;"/><path d="M231.8443,420.3106 Q231.2662,420.6075 230.6256,420.7481 Q229.9849,420.9044 229.2818,420.9044 Q226.7818,420.9044 225.4537,419.2638 Q224.1412,417.6075 224.1412,414.4825 Q224.1412,411.3575 225.4537,409.7013 Q226.7818,408.045 229.2818,408.045 Q229.9849,408.045 230.6256,408.2013 Q231.2818,408.3575 231.8443,408.6544 L231.8443,411.3731 Q231.2193,410.795 230.6256,410.5294 Q230.0318,410.2481 229.4068,410.2481 Q228.0631,410.2481 227.3756,411.3263 Q226.6881,412.3888 226.6881,414.4825 Q226.6881,416.5763 227.3756,417.6544 Q228.0631,418.7169 229.4068,418.7169 Q230.0318,418.7169 230.6256,418.4513 Q231.2193,418.17 231.8443,417.5919 L231.8443,420.3106 Z " fill="#000000"/><text fill="#000000" font-family="Times New Roman" font-size="14" lengthAdjust="spacing" textLength="106.9824" x="246.1101" y="419.5167">UserRepository</text><line style="stroke:#000000;stroke-width:1;" x1="193.32" x2="378.6481" y1="428.67" y2="428.67"/><text fill="#000000" font-family="Times New Roman" font-size="14" lengthAdjust="spacing" textLength="161.4102" x="198.32" y="445.6651">-apiService: ApiService</text><text fill="#000000" font-family="Times New Roman" font-size="14" lengthAdjust="spacing" textLength="132.5146" x="198.32" y="461.962">-userDao: UserDao</text><line style="stroke:#000000;stroke-width:1;" x1="193.32" x2="378.6481" y1="469.2638" y2="469.2638"/><text fill="#000000" font-family="Times New Roman" font-size="14" lengthAdjust="spacing" textLength="175.3281" x="198.32" y="486.2589">+fetchUserProfile(): User</text><text fill="#000000" font-family="Times New Roman" font-size="14" lengthAdjust="spacing" textLength="174.5967" x="198.32" y="502.5557">+updateUser(User): void</text></g><!--link UserProfileFragment to ProfileViewModel--><g class="link" data-entity-1="UserProfileFragment" data-entity-2="ProfileViewModel" data-source-line="47" data-uid="lnk6" id="link_UserProfileFragment_ProfileViewModel"><path codeLine="47" d="M198.32,137.92 C219.41,162.5 239.5124,185.9369 259.8524,209.6369" fill="none" id="UserProfileFragment-to-ProfileViewModel" style="stroke:#000000;stroke-width:1;"/><polygon fill="#000000" points="263.76,214.19,260.934,204.7553,260.5037,210.3958,254.8632,209.9654,263.76,214.19" style="stroke:#000000;stroke-width:1;"/><text fill="#000000" font-family="Times New Roman" font-size="13" lengthAdjust="spacing" textLength="29.7832" x="237.98" y="180.5469">uses</text></g><!--link ProfileViewModel to UserRepository--><g class="link" data-entity-1="ProfileViewModel" data-entity-2="UserRepository" data-source-line="48" data-uid="lnk7" id="link_ProfileViewModel_UserRepository"><path codeLine="48" d="M302.97,323.84 C299.83,347.95 296.9146,370.3602 293.7746,394.4802" fill="none" id="ProfileViewModel-to-UserRepository" style="stroke:#000000;stroke-width:1;"/><polygon fill="#000000" points="293,400.43,298.1284,392.0217,293.6455,395.4718,290.1953,390.9889,293,400.43" style="stroke:#000000;stroke-width:1;"/><text fill="#000000" font-family="Times New Roman" font-size="13" lengthAdjust="spacing" textLength="29.7832" x="298.98" y="366.7369">uses</text></g><!--link UserRepository to User--><g class="link" data-entity-1="UserRepository" data-entity-2="User" data-source-line="49" data-uid="lnk8" id="link_UserRepository_User"><path codeLine="49" d="M246.33,510.35 C228.98,534.02 212.078,557.0814 194.098,581.6014" fill="none" id="UserRepository-to-User" style="stroke:#000000;stroke-width:1;"/><polygon fill="#000000" points="190.55,586.44,199.0977,581.5475,193.5067,582.4079,192.6463,576.8168,190.55,586.44" style="stroke:#000000;stroke-width:1;"/><text fill="#000000" font-family="Times New Roman" font-size="13" lengthAdjust="spacing" textLength="59.8584" x="223.98" y="552.9269">manages</text></g><!--link UserProfileFragment to User--><g class="link" data-entity-1="UserProfileFragment" data-entity-2="User" data-source-line="50" data-uid="lnk9" id="link_UserProfileFragment_User"><path codeLine="50" d="M144.98,137.86 C144.98,248.07 144.98,470.55 144.98,580.64" fill="none" id="UserProfileFragment-to-User" style="stroke:#000000;stroke-width:1;"/><polygon fill="#000000" points="144.98,586.64,148.98,577.64,144.98,581.64,140.98,577.64,144.98,586.64" style="stroke:#000000;stroke-width:1;"/><text fill="#000000" font-family="Times New Roman" font-size="13" lengthAdjust="spacing" textLength="52.9331" x="145.98" y="366.7369">displays</text></g><!--SRC=[dLJ1JkCm5BpdAxoSYbOjd2E4L418I50XokuULw_nQsBX-4NFTgk2-7VingHfMY54Bh5dvcLcd2Y_N8KrYaQ3CfbzKQO1XbhKPAYec0Bbs6EFaRW4hzqj6JU3G9yygngjcE5QF54DvgIdBJHOEtMErS8xl2l8pDKhYlEUn5OWQQrCAPQWBMR3QV6MYN1TGV5ICdaZhqaJYt-LSjWon1AvHQzqa6tHAJEj- -3xmPD_qE3x8tE7ZEGspLSpMTlmZqLEDST2oLneCcNQ-i2PC9sBUSZGmKr51cU-NY0F65Y1WttmjoZHXJpspBRtqMayZftv8zDIQRnbA6iqhiiIpVEjujEs5VvLk7uWYJeNZmCa6PAvPWItnKUJoUGq5t6PMD_8mANHKU1Mf6JYD86CZZUXHaTrQOTsUr6Vi26h7F6c3RtR9z5_lokRYmVlOA7nNgqmcbt4aSlTWVKE9kOuAckBz9LnVP1wFqoN6HerHrwf8eIPTkjUeHkWjabO9CSbkg8QHEjUK3_GCCcnzpmUNnwUQ1wjRNQ0H_6WI98Eq4zXeCDN3cLI73DFCgbi-Fzix0S0]--></g></svg>