<svg xmlns="http://www.w3.org/2000/svg" xmlns:xlink="http://www.w3.org/1999/xlink" contentStyleType="text/css" data-diagram-type="CLASS" height="970px" preserveAspectRatio="none" style="width:933px;height:970px;background:#FFFFFF;" version="1.1" viewBox="0 0 933 970" width="933px" zoomAndPan="magnify"><defs/><g><!--class News--><g class="entity" data-entity="News" data-source-line="18" data-uid="ent0002" id="entity_News"><rect fill="#FFFFFF" height="174.375" rx="2.5" ry="2.5" style="stroke:#000000;stroke-width:1;" width="199.6055" x="227.6" y="789.34"/><ellipse cx="304.7377" cy="803.34" fill="#FFFFFF" rx="9" ry="9" style="stroke:#000000;stroke-width:1;"/><path d="M307.7064,808.9806 Q307.1283,809.2775 306.4877,809.4181 Q305.8471,809.5744 305.1439,809.5744 Q302.6439,809.5744 301.3158,807.9338 Q300.0033,806.2775 300.0033,803.1525 Q300.0033,800.0275 301.3158,798.3713 Q302.6439,796.715 305.1439,796.715 Q305.8471,796.715 306.4877,796.8713 Q307.1439,797.0275 307.7064,797.3244 L307.7064,800.0431 Q307.0814,799.465 306.4877,799.1994 Q305.8939,798.9181 305.2689,798.9181 Q303.9252,798.9181 303.2377,799.9963 Q302.5502,801.0588 302.5502,803.1525 Q302.5502,805.2463 303.2377,806.3244 Q303.9252,807.3869 305.2689,807.3869 Q305.8939,807.3869 306.4877,807.1213 Q307.0814,806.84 307.7064,806.2619 L307.7064,808.9806 Z " fill="#000000"/><text fill="#000000" font-family="Times New Roman" font-size="14" lengthAdjust="spacing" textLength="37.8301" x="322.2377" y="808.1867">News</text><line style="stroke:#000000;stroke-width:1;" x1="228.6" x2="426.2055" y1="817.34" y2="817.34"/><text fill="#000000" font-family="Times New Roman" font-size="14" lengthAdjust="spacing" textLength="61.1201" x="233.6" y="834.3351">-id: Long</text><text fill="#000000" font-family="Times New Roman" font-size="14" lengthAdjust="spacing" textLength="83.3711" x="233.6" y="850.632">-title: String</text><text fill="#000000" font-family="Times New Roman" font-size="14" lengthAdjust="spacing" textLength="74.5186" x="233.6" y="866.9289">-url: String</text><text fill="#000000" font-family="Times New Roman" font-size="14" lengthAdjust="spacing" textLength="80.7598" x="233.6" y="883.2257">-link: String</text><text fill="#000000" font-family="Times New Roman" font-size="14" lengthAdjust="spacing" textLength="140.0547" x="233.6" y="899.5226">-publishDate: String</text><text fill="#000000" font-family="Times New Roman" font-size="14" lengthAdjust="spacing" textLength="187.6055" x="233.6" y="915.8195">-createdAt: LocalDateTime</text><line style="stroke:#000000;stroke-width:1;" x1="228.6" x2="426.2055" y1="923.1213" y2="923.1213"/><text fill="#000000" font-family="Times New Roman" font-size="14" lengthAdjust="spacing" textLength="125.7129" x="233.6" y="940.1164">+onCreate(): void</text><text fill="#000000" font-family="Times New Roman" font-size="14" lengthAdjust="spacing" textLength="126.0615" x="233.6" y="956.4132">+getters/setters()</text></g><!--class NewsFragment--><g class="entity" data-entity="NewsFragment" data-source-line="29" data-uid="ent0003" id="entity_NewsFragment"><rect fill="#FFFFFF" height="174.375" rx="2.5" ry="2.5" style="stroke:#000000;stroke-width:1;" width="310.874" x="15.96" y="335.49"/><ellipse cx="114.7881" cy="349.49" fill="#FFFFFF" rx="9" ry="9" style="stroke:#000000;stroke-width:1;"/><path d="M117.7569,355.1306 Q117.1788,355.4275 116.5381,355.5681 Q115.8975,355.7244 115.1944,355.7244 Q112.6944,355.7244 111.3663,354.0838 Q110.0538,352.4275 110.0538,349.3025 Q110.0538,346.1775 111.3663,344.5213 Q112.6944,342.865 115.1944,342.865 Q115.8975,342.865 116.5381,343.0213 Q117.1944,343.1775 117.7569,343.4744 L117.7569,346.1931 Q117.1319,345.615 116.5381,345.3494 Q115.9444,345.0681 115.3194,345.0681 Q113.9756,345.0681 113.2881,346.1463 Q112.6006,347.2088 112.6006,349.3025 Q112.6006,351.3963 113.2881,352.4744 Q113.9756,353.5369 115.3194,353.5369 Q115.9444,353.5369 116.5381,353.2713 Q117.1319,352.99 117.7569,352.4119 L117.7569,355.1306 Z " fill="#000000"/><text fill="#000000" font-family="Times New Roman" font-size="14" lengthAdjust="spacing" textLength="105.7178" x="132.2881" y="354.3367">NewsFragment</text><line style="stroke:#000000;stroke-width:1;" x1="16.96" x2="325.834" y1="363.49" y2="363.49"/><text fill="#000000" font-family="Times New Roman" font-size="14" lengthAdjust="spacing" textLength="298.874" x="21.96" y="380.4851">-swipeRefreshLayout: SwipeRefreshLayout</text><text fill="#000000" font-family="Times New Roman" font-size="14" lengthAdjust="spacing" textLength="238.0684" x="21.96" y="396.782">-newsRecyclerView: RecyclerView</text><text fill="#000000" font-family="Times New Roman" font-size="14" lengthAdjust="spacing" textLength="199.8555" x="21.96" y="413.0789">-newsAdapter: NewsAdapter</text><line style="stroke:#000000;stroke-width:1;" x1="16.96" x2="325.834" y1="420.3806" y2="420.3806"/><text fill="#000000" font-family="Times New Roman" font-size="14" lengthAdjust="spacing" textLength="176.4971" x="21.96" y="437.3757">+onCreateView(...): View</text><text fill="#000000" font-family="Times New Roman" font-size="14" lengthAdjust="spacing" textLength="181.4805" x="21.96" y="453.6726">+onViewCreated(...): void</text><text fill="#000000" font-family="Times New Roman" font-size="14" lengthAdjust="spacing" textLength="122.5205" x="21.96" y="469.9695">-loadNews(): void</text><text fill="#000000" font-family="Times New Roman" font-size="14" lengthAdjust="spacing" textLength="142.4336" x="21.96" y="486.2664">-refreshNews(): void</text><text fill="#000000" font-family="Times New Roman" font-size="14" lengthAdjust="spacing" textLength="167.4121" x="21.96" y="502.5632">-showError(String): void</text></g><!--class NewsAdapter--><g class="entity" data-entity="NewsAdapter" data-source-line="40" data-uid="ent0004" id="entity_NewsAdapter"><rect fill="#FFFFFF" height="125.4844" rx="2.5" ry="2.5" style="stroke:#000000;stroke-width:1;" width="318.8037" x="12" y="586.86"/><ellipse cx="120.8428" cy="600.86" fill="#FFFFFF" rx="9" ry="9" style="stroke:#000000;stroke-width:1;"/><path d="M123.8115,606.5006 Q123.2334,606.7975 122.5928,606.9381 Q121.9521,607.0944 121.249,607.0944 Q118.749,607.0944 117.4209,605.4538 Q116.1084,603.7975 116.1084,600.6725 Q116.1084,597.5475 117.4209,595.8913 Q118.749,594.235 121.249,594.235 Q121.9521,594.235 122.5928,594.3913 Q123.249,594.5475 123.8115,594.8444 L123.8115,597.5631 Q123.1865,596.985 122.5928,596.7194 Q121.999,596.4381 121.374,596.4381 Q120.0303,596.4381 119.3428,597.5163 Q118.6553,598.5788 118.6553,600.6725 Q118.6553,602.7663 119.3428,603.8444 Q120.0303,604.9069 121.374,604.9069 Q121.999,604.9069 122.5928,604.6413 Q123.1865,604.36 123.8115,603.7819 L123.8115,606.5006 Z " fill="#000000"/><text fill="#000000" font-family="Times New Roman" font-size="14" lengthAdjust="spacing" textLength="93.6182" x="138.3428" y="605.7067">NewsAdapter</text><line style="stroke:#000000;stroke-width:1;" x1="13" x2="329.8037" y1="614.86" y2="614.86"/><text fill="#000000" font-family="Times New Roman" font-size="14" lengthAdjust="spacing" textLength="160.6855" x="18" y="631.8551">-newsList: List&lt;News&gt;</text><line style="stroke:#000000;stroke-width:1;" x1="13" x2="329.8037" y1="639.1569" y2="639.1569"/><text fill="#000000" font-family="Times New Roman" font-size="14" lengthAdjust="spacing" textLength="306.8037" x="18" y="656.152">+onCreateViewHolder(...): NewsViewHolder</text><text fill="#000000" font-family="Times New Roman" font-size="14" lengthAdjust="spacing" textLength="203.2598" x="18" y="672.4489">+onBindViewHolder(...): void</text><text fill="#000000" font-family="Times New Roman" font-size="14" lengthAdjust="spacing" textLength="146.5078" x="18" y="688.7457">+getItemCount(): int</text><text fill="#000000" font-family="Times New Roman" font-size="14" lengthAdjust="spacing" textLength="234.3701" x="18" y="705.0426">+updateNews(List&lt;News&gt;): void</text></g><!--class NewsController--><g class="entity" data-entity="NewsController" data-source-line="48" data-uid="ent0005" id="entity_NewsController"><rect fill="#FFFFFF" height="92.8906" rx="2.5" ry="2.5" style="stroke:#000000;stroke-width:1;" width="365.8691" x="507.47" y="12"/><ellipse cx="633.1531" cy="26" fill="#FFFFFF" rx="9" ry="9" style="stroke:#000000;stroke-width:1;"/><path d="M636.1219,31.6406 Q635.5437,31.9375 634.9031,32.0781 Q634.2625,32.2344 633.5594,32.2344 Q631.0594,32.2344 629.7312,30.5938 Q628.4187,28.9375 628.4187,25.8125 Q628.4187,22.6875 629.7312,21.0313 Q631.0594,19.375 633.5594,19.375 Q634.2625,19.375 634.9031,19.5313 Q635.5594,19.6875 636.1219,19.9844 L636.1219,22.7031 Q635.4969,22.125 634.9031,21.8594 Q634.3094,21.5781 633.6844,21.5781 Q632.3406,21.5781 631.6531,22.6563 Q630.9656,23.7188 630.9656,25.8125 Q630.9656,27.9063 631.6531,28.9844 Q632.3406,30.0469 633.6844,30.0469 Q634.3094,30.0469 634.9031,29.7813 Q635.4969,29.5 636.1219,28.9219 L636.1219,31.6406 Z " fill="#000000"/><text fill="#000000" font-family="Times New Roman" font-size="14" lengthAdjust="spacing" textLength="107.0029" x="650.6531" y="30.8467">NewsController</text><line style="stroke:#000000;stroke-width:1;" x1="508.47" x2="872.3391" y1="40" y2="40"/><text fill="#000000" font-family="Times New Roman" font-size="14" lengthAdjust="spacing" textLength="191.7617" x="513.47" y="56.9951">-newsService: NewsService</text><line style="stroke:#000000;stroke-width:1;" x1="508.47" x2="872.3391" y1="64.2969" y2="64.2969"/><text fill="#000000" font-family="Times New Roman" font-size="14" lengthAdjust="spacing" textLength="353.8691" x="513.47" y="81.292">+getLatestNews(): ResponseEntity&lt;List&lt;News&gt;&gt;</text><text fill="#000000" font-family="Times New Roman" font-size="14" lengthAdjust="spacing" textLength="282.6045" x="513.47" y="97.5889">+refreshNews(): ResponseEntity&lt;Void&gt;</text></g><!--class NewsService--><g class="entity" data-entity="NewsService" data-source-line="54" data-uid="ent0006" id="entity_NewsService"><rect fill="#FFFFFF" height="76.5938" rx="2.5" ry="2.5" style="stroke:#000000;stroke-width:1;" width="233.6689" x="573.57" y="181.89"/><ellipse cx="641.8688" cy="195.89" fill="#FFFFFF" rx="9" ry="9" style="stroke:#000000;stroke-width:1;"/><path d="M637.7907,191.6556 L637.7907,189.4994 L645.1813,189.4994 L645.1813,191.6556 L642.7126,191.6556 L642.7126,199.7338 L645.1813,199.7338 L645.1813,201.89 L637.7907,201.89 L637.7907,199.7338 L640.2595,199.7338 L640.2595,191.6556 L637.7907,191.6556 Z " fill="#000000"/><text fill="#000000" font-family="Times New Roman" font-size="14" font-style="italic" lengthAdjust="spacing" textLength="89.5713" x="659.3688" y="200.7367">NewsService</text><line style="stroke:#000000;stroke-width:1;" x1="574.57" x2="806.2389" y1="209.89" y2="209.89"/><line style="stroke:#000000;stroke-width:1;" x1="574.57" x2="806.2389" y1="217.89" y2="217.89"/><text fill="#000000" font-family="Times New Roman" font-size="14" lengthAdjust="spacing" textLength="221.6689" x="579.57" y="234.8851">+getLatestNews(): List&lt;News&gt;</text><text fill="#000000" font-family="Times New Roman" font-size="14" lengthAdjust="spacing" textLength="149.1123" x="579.57" y="251.182">+refreshNews(): void</text></g><!--class NewsServiceImpl--><g class="entity" data-entity="NewsServiceImpl" data-source-line="59" data-uid="ent0007" id="entity_NewsServiceImpl"><rect fill="#FFFFFF" height="125.4844" rx="2.5" ry="2.5" style="stroke:#000000;stroke-width:1;" width="250.4238" x="565.19" y="359.93"/><ellipse cx="626.5948" cy="373.93" fill="#FFFFFF" rx="9" ry="9" style="stroke:#000000;stroke-width:1;"/><path d="M629.5635,379.5706 Q628.9854,379.8675 628.3448,380.0081 Q627.7042,380.1644 627.001,380.1644 Q624.501,380.1644 623.1729,378.5238 Q621.8604,376.8675 621.8604,373.7425 Q621.8604,370.6175 623.1729,368.9613 Q624.501,367.305 627.001,367.305 Q627.7042,367.305 628.3448,367.4613 Q629.001,367.6175 629.5635,367.9144 L629.5635,370.6331 Q628.9385,370.055 628.3448,369.7894 Q627.751,369.5081 627.126,369.5081 Q625.7823,369.5081 625.0948,370.5863 Q624.4073,371.6488 624.4073,373.7425 Q624.4073,375.8363 625.0948,376.9144 Q625.7823,377.9769 627.126,377.9769 Q627.751,377.9769 628.3448,377.7113 Q628.9385,377.43 629.5635,376.8519 L629.5635,379.5706 Z " fill="#000000"/><text fill="#000000" font-family="Times New Roman" font-size="14" lengthAdjust="spacing" textLength="120.1143" x="644.0948" y="378.7767">NewsServiceImpl</text><line style="stroke:#000000;stroke-width:1;" x1="566.19" x2="814.6138" y1="387.93" y2="387.93"/><text fill="#000000" font-family="Times New Roman" font-size="14" lengthAdjust="spacing" textLength="238.4238" x="571.19" y="404.9251">-newsRepository: NewsRepository</text><text fill="#000000" font-family="Times New Roman" font-size="14" lengthAdjust="spacing" textLength="208.5576" x="571.19" y="421.222">-objectMapper: ObjectMapper</text><text fill="#000000" font-family="Times New Roman" font-size="14" lengthAdjust="spacing" textLength="214.1768" x="571.19" y="437.5189">-PYTHON_SCRIPT_PATH: String</text><line style="stroke:#000000;stroke-width:1;" x1="566.19" x2="814.6138" y1="444.8206" y2="444.8206"/><text fill="#000000" font-family="Times New Roman" font-size="14" lengthAdjust="spacing" textLength="221.6689" x="571.19" y="461.8157">+getLatestNews(): List&lt;News&gt;</text><text fill="#000000" font-family="Times New Roman" font-size="14" lengthAdjust="spacing" textLength="149.1123" x="571.19" y="478.1126">+refreshNews(): void</text></g><!--class NewsRepository--><g class="entity" data-entity="NewsRepository" data-source-line="67" data-uid="ent0008" id="entity_NewsRepository"><rect fill="#FFFFFF" height="60.2969" rx="2.5" ry="2.5" style="stroke:#000000;stroke-width:1;" width="237.2578" x="365.77" y="619.45"/><ellipse cx="424.1977" cy="633.45" fill="#FFFFFF" rx="9" ry="9" style="stroke:#000000;stroke-width:1;"/><path d="M420.1196,629.2156 L420.1196,627.0594 L427.5102,627.0594 L427.5102,629.2156 L425.0415,629.2156 L425.0415,637.2938 L427.5102,637.2938 L427.5102,639.45 L420.1196,639.45 L420.1196,637.2938 L422.5884,637.2938 L422.5884,629.2156 L420.1196,629.2156 Z " fill="#000000"/><text fill="#000000" font-family="Times New Roman" font-size="14" font-style="italic" lengthAdjust="spacing" textLength="112.9023" x="441.6977" y="638.2967">NewsRepository</text><line style="stroke:#000000;stroke-width:1;" x1="366.77" x2="602.0278" y1="647.45" y2="647.45"/><line style="stroke:#000000;stroke-width:1;" x1="366.77" x2="602.0278" y1="655.45" y2="655.45"/><text fill="#000000" font-family="Times New Roman" font-size="14" lengthAdjust="spacing" textLength="225.2578" x="371.77" y="672.4451">+findLatestNews(): List&lt;News&gt;</text></g><!--class NewsCrawler--><g class="entity" data-entity="NewsCrawler" data-source-line="71" data-uid="ent0009" id="entity_NewsCrawler"><rect fill="#FFFFFF" height="60.2969" rx="2.5" ry="2.5" style="stroke:#000000;stroke-width:1;" width="288.1309" x="638.34" y="619.45"/><ellipse cx="732.8307" cy="633.45" fill="#FFFFFF" rx="9" ry="9" style="stroke:#000000;stroke-width:1;"/><path d="M735.7995,639.0906 Q735.2213,639.3875 734.5807,639.5281 Q733.9401,639.6844 733.237,639.6844 Q730.737,639.6844 729.4088,638.0438 Q728.0963,636.3875 728.0963,633.2625 Q728.0963,630.1375 729.4088,628.4813 Q730.737,626.825 733.237,626.825 Q733.9401,626.825 734.5807,626.9813 Q735.237,627.1375 735.7995,627.4344 L735.7995,630.1531 Q735.1745,629.575 734.5807,629.3094 Q733.987,629.0281 733.362,629.0281 Q732.0182,629.0281 731.3307,630.1063 Q730.6432,631.1688 730.6432,633.2625 Q730.6432,635.3563 731.3307,636.4344 Q732.0182,637.4969 733.362,637.4969 Q733.987,637.4969 734.5807,637.2313 Q735.1745,636.95 735.7995,636.3719 L735.7995,639.0906 Z " fill="#000000"/><text fill="#000000" font-family="Times New Roman" font-size="14" lengthAdjust="spacing" textLength="91.6494" x="750.3307" y="638.2967">NewsCrawler</text><line style="stroke:#000000;stroke-width:1;" x1="639.34" x2="925.4709" y1="647.45" y2="647.45"/><line style="stroke:#000000;stroke-width:1;" x1="639.34" x2="925.4709" y1="655.45" y2="655.45"/><text fill="#000000" font-family="Times New Roman" font-size="14" lengthAdjust="spacing" textLength="276.1309" x="644.34" y="672.4451">+crawl_psychology_news(): List&lt;Map&gt;</text></g><!--link NewsFragment to NewsAdapter--><g class="link" data-entity-1="NewsFragment" data-entity-2="NewsAdapter" data-source-line="75" data-uid="lnk10" id="link_NewsFragment_NewsAdapter"><path codeLine="75" d="M171.4,510.32 C171.4,535.69 171.4,556.91 171.4,580.43" fill="none" id="NewsFragment-to-NewsAdapter" style="stroke:#000000;stroke-width:1;"/><polygon fill="#000000" points="171.4,586.43,175.4,577.43,171.4,581.43,167.4,577.43,171.4,586.43" style="stroke:#000000;stroke-width:1;"/><text fill="#000000" font-family="Times New Roman" font-size="13" lengthAdjust="spacing" textLength="29.7832" x="172.4" y="552.9269">uses</text></g><!--link NewsAdapter to News--><g class="link" data-entity-1="NewsAdapter" data-entity-2="News" data-source-line="76" data-uid="lnk11" id="link_NewsAdapter_News"><path codeLine="76" d="M214.44,712.66 C230.86,736.33 246.4496,758.8204 264.1496,784.3304" fill="none" id="NewsAdapter-to-News" style="stroke:#000000;stroke-width:1;"/><polygon fill="#000000" points="267.57,789.26,265.7258,779.5853,264.7197,785.152,259.153,784.1459,267.57,789.26" style="stroke:#000000;stroke-width:1;"/><text fill="#000000" font-family="Times New Roman" font-size="13" lengthAdjust="spacing" textLength="52.9331" x="246.4" y="755.4069">displays</text></g><!--link NewsController to NewsService--><g class="link" data-entity-1="NewsController" data-entity-2="NewsService" data-source-line="77" data-uid="lnk12" id="link_NewsController_NewsService"><path codeLine="77" d="M690.4,105.22 C690.4,129.38 690.4,152.65 690.4,175.49" fill="none" id="NewsController-to-NewsService" style="stroke:#000000;stroke-width:1;"/><polygon fill="#000000" points="690.4,181.49,694.4,172.49,690.4,176.49,686.4,172.49,690.4,181.49" style="stroke:#000000;stroke-width:1;"/><text fill="#000000" font-family="Times New Roman" font-size="13" lengthAdjust="spacing" textLength="29.7832" x="691.4" y="147.9569">uses</text></g><!--reverse link NewsService to NewsServiceImpl--><g class="link" data-entity-1="NewsService" data-entity-2="NewsServiceImpl" data-source-line="78" data-uid="lnk13" id="link_NewsService_NewsServiceImpl"><path codeLine="78" d="M690.4,276.9 C690.4,305.26 690.4,326.73 690.4,359.7" fill="none" id="NewsService-backto-NewsServiceImpl" style="stroke:#000000;stroke-width:1;stroke-dasharray:7.0,7.0;"/><polygon fill="none" points="690.4,258.9,684.4,276.9,696.4,276.9,690.4,258.9" style="stroke:#000000;stroke-width:1;"/><text fill="#000000" font-family="Times New Roman" font-size="13" lengthAdjust="spacing" textLength="76.9082" x="691.4" y="301.5569">implements</text></g><!--link NewsServiceImpl to NewsRepository--><g class="link" data-entity-1="NewsServiceImpl" data-entity-2="NewsRepository" data-source-line="79" data-uid="lnk14" id="link_NewsServiceImpl_NewsRepository"><path codeLine="79" d="M633.57,485.73 C593.79,529.16 546.4823,580.8152 515.5823,614.5552" fill="none" id="NewsServiceImpl-to-NewsRepository" style="stroke:#000000;stroke-width:1;"/><polygon fill="#000000" points="511.53,618.98,520.5583,615.0444,514.9069,615.2927,514.6586,609.6413,511.53,618.98" style="stroke:#000000;stroke-width:1;"/><text fill="#000000" font-family="Times New Roman" font-size="13" lengthAdjust="spacing" textLength="29.7832" x="581.4" y="552.9269">uses</text></g><!--link NewsServiceImpl to NewsCrawler--><g class="link" data-entity-1="NewsServiceImpl" data-entity-2="NewsCrawler" data-source-line="80" data-uid="lnk15" id="link_NewsServiceImpl_NewsCrawler"><path codeLine="80" d="M715.78,485.73 C733.55,529.16 754.2186,579.6866 768.0186,613.4266" fill="none" id="NewsServiceImpl-to-NewsCrawler" style="stroke:#000000;stroke-width:1;"/><polygon fill="#000000" points="770.29,618.98,770.5852,609.1356,768.3972,614.3521,763.1806,612.1641,770.29,618.98" style="stroke:#000000;stroke-width:1;"/><text fill="#000000" font-family="Times New Roman" font-size="13" lengthAdjust="spacing" textLength="58.9443" x="745.4" y="552.9269">executes</text></g><!--link NewsRepository to News--><g class="link" data-entity-1="NewsRepository" data-entity-2="News" data-source-line="81" data-uid="lnk16" id="link_NewsRepository_News"><path codeLine="81" d="M463.88,680.01 C444.59,707.64 418.1934,745.4494 391.3434,783.9294" fill="none" id="NewsRepository-to-News" style="stroke:#000000;stroke-width:1;"/><polygon fill="#000000" points="387.91,788.85,396.3405,783.7581,390.7712,784.7495,389.7797,779.1802,387.91,788.85" style="stroke:#000000;stroke-width:1;"/><text fill="#000000" font-family="Times New Roman" font-size="13" lengthAdjust="spacing" textLength="59.8584" x="421.4" y="755.4069">manages</text></g><!--SRC=[fLLDRzim3BtdLsWzfIYIxMmK1TAiHGDaRP44BNOAL8knjSgI8Sdrl8__FigMRTd9Xc7B8GR9H_8zYfRVsHGo8BcWN4ucvfNBd6gQaKn95QTQOSpg0e88WmCjXBrLqjvJ39_jU0Q6t4D9DYgZyYp0ne8Qix1MyvV2mYfMSik_0VaGG4nAcIgvJCY12WEJSJRvFY7ukwRnQw9L8TbI2QN9SyejD16b6UZ6UoqGLdiNMgioTFuyglmF2lu-PMj1Wx9L_gUSIQCGFQtC6U4i8cib4szQRWL4P8i4Eb-XnSWZk7mTkVBYHN2JVgHsd1vhG2TRMDSefi917BKwV46KNDQ0wNb4tXHdtfs0HKdclMcUqtCtqPx_hQP91j9sEap9SzZ0GOD9rxHI1RRR7layM6A53SHLB40_SIWZ4be1QC5eZksZkgStHhnTndG-doFzBjb5dT4Wc0ztwd20YZ9NSZfqwuRhYOX9LNc3EwQdpMpRw60edc0t4wTWpOqRFFvVEiZL2VPtIk16Uv8Er3ixz3MNx0WxFAwLXMo9RunrrBcqFbBa3FlKadeM9-alSNEr4cAaO0lwZSVGKFD6ttMDnOrj9xO1aojfu4RY8bUNVSDMzsZ28_mJShfof90-w0ED8MpgMPreUpJUKmSvqEfBhh9S3CHk85U6MwMhHczlUv1w-GAn_KJptAtbGs1vmEFdtTt3_NwxtAmUT_l7nUvky3x-1_lXK7fctLmEk2I_BJqyQatB_fmly8v0Uv-RAaxn3asglGmBeBuwV_3YpsPNWwMFI670J49N2y4OumQ_ELKJ3nQjXRH775HfNPS_vlEZCyCDnmSu9WDq7MoB1YCwhZj0jlE827o566_-1XeK2BJWNKuJCBy0]--></g></svg>