<svg xmlns="http://www.w3.org/2000/svg" xmlns:xlink="http://www.w3.org/1999/xlink" contentStyleType="text/css" data-diagram-type="CLASS" height="719px" preserveAspectRatio="none" style="width:439px;height:719px;background:#FFFFFF;" version="1.1" viewBox="0 0 439 719" width="439px" zoomAndPan="magnify"><defs/><g><!--class PsychTest--><g class="entity" data-entity="PsychTest" data-source-line="17" data-uid="ent0002" id="entity_PsychTest"><rect fill="#FFFFFF" height="125.4844" rx="2.5" ry="2.5" style="stroke:#000000;stroke-width:1;" width="224.8506" x="124.05" y="214.48"/><ellipse cx="197.4553" cy="228.48" fill="#FFFFFF" rx="9" ry="9" style="stroke:#000000;stroke-width:1;"/><path d="M200.424,234.1206 Q199.8459,234.4175 199.2053,234.5581 Q198.5646,234.7144 197.8615,234.7144 Q195.3615,234.7144 194.0334,233.0737 Q192.7209,231.4175 192.7209,228.2925 Q192.7209,225.1675 194.0334,223.5112 Q195.3615,221.855 197.8615,221.855 Q198.5646,221.855 199.2053,222.0112 Q199.8615,222.1675 200.424,222.4644 L200.424,225.1831 Q199.799,224.605 199.2053,224.3394 Q198.6115,224.0581 197.9865,224.0581 Q196.6428,224.0581 195.9553,225.1362 Q195.2678,226.1987 195.2678,228.2925 Q195.2678,230.3862 195.9553,231.4644 Q196.6428,232.5269 197.9865,232.5269 Q198.6115,232.5269 199.2053,232.2612 Q199.799,231.98 200.424,231.4019 L200.424,234.1206 Z " fill="#000000"/><text fill="#000000" font-family="Times New Roman" font-size="14" lengthAdjust="spacing" textLength="70.54" x="214.9553" y="233.3267">PsychTest</text><line style="stroke:#000000;stroke-width:1;" x1="125.05" x2="347.9006" y1="242.48" y2="242.48"/><text fill="#000000" font-family="Times New Roman" font-size="14" lengthAdjust="spacing" textLength="57.21" x="130.05" y="259.4751">-id: long</text><text fill="#000000" font-family="Times New Roman" font-size="14" lengthAdjust="spacing" textLength="83.3711" x="130.05" y="275.772">-title: String</text><text fill="#000000" font-family="Times New Roman" font-size="14" lengthAdjust="spacing" textLength="133.8408" x="130.05" y="292.0689">-description: String</text><text fill="#000000" font-family="Times New Roman" font-size="14" lengthAdjust="spacing" textLength="192.5479" x="130.05" y="308.3657">-questions: List&lt;Question&gt;</text><line style="stroke:#000000;stroke-width:1;" x1="125.05" x2="347.9006" y1="315.6675" y2="315.6675"/><text fill="#000000" font-family="Times New Roman" font-size="14" lengthAdjust="spacing" textLength="212.8506" x="130.05" y="332.6626">+calculateResult(): TestResult</text></g><!--class Question--><g class="entity" data-entity="Question" data-source-line="25" data-uid="ent0003" id="entity_Question"><rect fill="#FFFFFF" height="109.1875" rx="2.5" ry="2.5" style="stroke:#000000;stroke-width:1;" width="220.9473" x="12" y="433.26"/><ellipse cx="87.415" cy="447.26" fill="#FFFFFF" rx="9" ry="9" style="stroke:#000000;stroke-width:1;"/><path d="M90.3838,452.9006 Q89.8057,453.1975 89.165,453.3381 Q88.5244,453.4944 87.8213,453.4944 Q85.3213,453.4944 83.9932,451.8538 Q82.6807,450.1975 82.6807,447.0725 Q82.6807,443.9475 83.9932,442.2913 Q85.3213,440.635 87.8213,440.635 Q88.5244,440.635 89.165,440.7913 Q89.8213,440.9475 90.3838,441.2444 L90.3838,443.9631 Q89.7588,443.385 89.165,443.1194 Q88.5713,442.8381 87.9463,442.8381 Q86.6025,442.8381 85.915,443.9163 Q85.2275,444.9788 85.2275,447.0725 Q85.2275,449.1663 85.915,450.2444 Q86.6025,451.3069 87.9463,451.3069 Q88.5713,451.3069 89.165,451.0413 Q89.7588,450.76 90.3838,450.1819 L90.3838,452.9006 Z " fill="#000000"/><text fill="#000000" font-family="Times New Roman" font-size="14" lengthAdjust="spacing" textLength="62.6172" x="104.915" y="452.1067">Question</text><line style="stroke:#000000;stroke-width:1;" x1="13" x2="231.9473" y1="461.26" y2="461.26"/><text fill="#000000" font-family="Times New Roman" font-size="14" lengthAdjust="spacing" textLength="57.21" x="18" y="478.2551">-id: long</text><text fill="#000000" font-family="Times New Roman" font-size="14" lengthAdjust="spacing" textLength="109.6006" x="18" y="494.552">-content: String</text><text fill="#000000" font-family="Times New Roman" font-size="14" lengthAdjust="spacing" textLength="160.4395" x="18" y="510.8489">-options: List&lt;Option&gt;</text><line style="stroke:#000000;stroke-width:1;" x1="13" x2="231.9473" y1="518.1506" y2="518.1506"/><text fill="#000000" font-family="Times New Roman" font-size="14" lengthAdjust="spacing" textLength="208.9473" x="18" y="535.1457">+getSelectedOption(): Option</text></g><!--class Option--><g class="entity" data-entity="Option" data-source-line="32" data-uid="ent0004" id="entity_Option"><rect fill="#FFFFFF" height="92.8906" rx="2.5" ry="2.5" style="stroke:#000000;stroke-width:1;" width="121.6006" x="61.67" y="619.75"/><ellipse cx="95.7646" cy="633.75" fill="#FFFFFF" rx="9" ry="9" style="stroke:#000000;stroke-width:1;"/><path d="M98.7334,639.3906 Q98.1553,639.6875 97.5146,639.8281 Q96.874,639.9844 96.1709,639.9844 Q93.6709,639.9844 92.3428,638.3438 Q91.0303,636.6875 91.0303,633.5625 Q91.0303,630.4375 92.3428,628.7813 Q93.6709,627.125 96.1709,627.125 Q96.874,627.125 97.5146,627.2813 Q98.1709,627.4375 98.7334,627.7344 L98.7334,630.4531 Q98.1084,629.875 97.5146,629.6094 Q96.9209,629.3281 96.2959,629.3281 Q94.9521,629.3281 94.2646,630.4063 Q93.5771,631.4688 93.5771,633.5625 Q93.5771,635.6563 94.2646,636.7344 Q94.9521,637.7969 96.2959,637.7969 Q96.9209,637.7969 97.5146,637.5313 Q98.1084,637.25 98.7334,636.6719 L98.7334,639.3906 Z " fill="#000000"/><text fill="#000000" font-family="Times New Roman" font-size="14" lengthAdjust="spacing" textLength="46.7236" x="112.4523" y="638.5967">Option</text><line style="stroke:#000000;stroke-width:1;" x1="62.67" x2="182.2706" y1="647.75" y2="647.75"/><text fill="#000000" font-family="Times New Roman" font-size="14" lengthAdjust="spacing" textLength="57.21" x="67.67" y="664.7451">-id: long</text><text fill="#000000" font-family="Times New Roman" font-size="14" lengthAdjust="spacing" textLength="109.6006" x="67.67" y="681.042">-content: String</text><text fill="#000000" font-family="Times New Roman" font-size="14" lengthAdjust="spacing" textLength="70.3965" x="67.67" y="697.3389">-score: int</text><line style="stroke:#000000;stroke-width:1;" x1="62.67" x2="182.2706" y1="704.6406" y2="704.6406"/></g><!--class TestResult--><g class="entity" data-entity="TestResult" data-source-line="38" data-uid="ent0005" id="entity_TestResult"><rect fill="#FFFFFF" height="141.7813" rx="2.5" ry="2.5" style="stroke:#000000;stroke-width:1;" width="164.7627" x="268.09" y="416.97"/><ellipse cx="309.8039" cy="430.97" fill="#FFFFFF" rx="9" ry="9" style="stroke:#000000;stroke-width:1;"/><path d="M312.7726,436.6106 Q312.1945,436.9075 311.5539,437.0481 Q310.9132,437.2044 310.2101,437.2044 Q307.7101,437.2044 306.382,435.5637 Q305.0695,433.9075 305.0695,430.7825 Q305.0695,427.6575 306.382,426.0012 Q307.7101,424.345 310.2101,424.345 Q310.9132,424.345 311.5539,424.5012 Q312.2101,424.6575 312.7726,424.9544 L312.7726,427.6731 Q312.1476,427.095 311.5539,426.8294 Q310.9601,426.5481 310.3351,426.5481 Q308.9914,426.5481 308.3039,427.6262 Q307.6164,428.6887 307.6164,430.7825 Q307.6164,432.8762 308.3039,433.9544 Q308.9914,435.0169 310.3351,435.0169 Q310.9601,435.0169 311.5539,434.7512 Q312.1476,434.47 312.7726,433.8919 L312.7726,436.6106 Z " fill="#000000"/><text fill="#000000" font-family="Times New Roman" font-size="14" lengthAdjust="spacing" textLength="73.835" x="327.3039" y="435.8167">TestResult</text><line style="stroke:#000000;stroke-width:1;" x1="269.09" x2="431.8527" y1="444.97" y2="444.97"/><text fill="#000000" font-family="Times New Roman" font-size="14" lengthAdjust="spacing" textLength="57.21" x="274.09" y="461.9651">-id: long</text><text fill="#000000" font-family="Times New Roman" font-size="14" lengthAdjust="spacing" textLength="84.335" x="274.09" y="478.262">-testId: long</text><text fill="#000000" font-family="Times New Roman" font-size="14" lengthAdjust="spacing" textLength="87.9854" x="274.09" y="494.5589">-userId: long</text><text fill="#000000" font-family="Times New Roman" font-size="14" lengthAdjust="spacing" textLength="70.3965" x="274.09" y="510.8557">-score: int</text><text fill="#000000" font-family="Times New Roman" font-size="14" lengthAdjust="spacing" textLength="152.7627" x="274.09" y="527.1526">-interpretation: String</text><text fill="#000000" font-family="Times New Roman" font-size="14" lengthAdjust="spacing" textLength="119.9502" x="274.09" y="543.4495">-timestamp: long</text><line style="stroke:#000000;stroke-width:1;" x1="269.09" x2="431.8527" y1="550.7513" y2="550.7513"/></g><!--class PsychTestFragment--><g class="entity" data-entity="PsychTestFragment" data-source-line="47" data-uid="ent0006" id="entity_PsychTestFragment"><rect fill="#FFFFFF" height="125.4844" rx="2.5" ry="2.5" style="stroke:#000000;stroke-width:1;" width="234.1816" x="119.38" y="12"/><ellipse cx="163.507" cy="26" fill="#FFFFFF" rx="9" ry="9" style="stroke:#000000;stroke-width:1;"/><path d="M166.4757,31.6406 Q165.8976,31.9375 165.257,32.0781 Q164.6163,32.2344 163.9132,32.2344 Q161.4132,32.2344 160.0851,30.5938 Q158.7726,28.9375 158.7726,25.8125 Q158.7726,22.6875 160.0851,21.0313 Q161.4132,19.375 163.9132,19.375 Q164.6163,19.375 165.257,19.5313 Q165.9132,19.6875 166.4757,19.9844 L166.4757,22.7031 Q165.8507,22.125 165.257,21.8594 Q164.6632,21.5781 164.0382,21.5781 Q162.6945,21.5781 162.007,22.6563 Q161.3195,23.7188 161.3195,25.8125 Q161.3195,27.9063 162.007,28.9844 Q162.6945,30.0469 164.0382,30.0469 Q164.6632,30.0469 165.257,29.7813 Q165.8507,29.5 166.4757,28.9219 L166.4757,31.6406 Z " fill="#000000"/><text fill="#000000" font-family="Times New Roman" font-size="14" lengthAdjust="spacing" textLength="138.4277" x="181.007" y="30.8467">PsychTestFragment</text><line style="stroke:#000000;stroke-width:1;" x1="120.38" x2="352.5616" y1="40" y2="40"/><text fill="#000000" font-family="Times New Roman" font-size="14" lengthAdjust="spacing" textLength="165.7646" x="125.38" y="56.9951">-currentTest: PsychTest</text><text fill="#000000" font-family="Times New Roman" font-size="14" lengthAdjust="spacing" textLength="222.1816" x="125.38" y="73.292">-testViewModel: TestViewModel</text><line style="stroke:#000000;stroke-width:1;" x1="120.38" x2="352.5616" y1="80.5938" y2="80.5938"/><text fill="#000000" font-family="Times New Roman" font-size="14" lengthAdjust="spacing" textLength="124.0039" x="125.38" y="97.5889">+startTest(): void</text><text fill="#000000" font-family="Times New Roman" font-size="14" lengthAdjust="spacing" textLength="207.8057" x="125.38" y="113.8857">+submitAnswer(Option): void</text><text fill="#000000" font-family="Times New Roman" font-size="14" lengthAdjust="spacing" textLength="215.3525" x="125.38" y="130.1826">+showResult(TestResult): void</text></g><!--reverse link PsychTest to Question--><g class="link" data-entity-1="PsychTest" data-entity-2="Question" data-source-line="55" data-uid="lnk7" id="link_PsychTest_Question"><path codeLine="55" d="M196.8263,350.7906 C180.7463,380.2206 167.47,404.52 151.99,432.85" fill="none" id="PsychTest-backto-Question" style="stroke:#000000;stroke-width:1;"/><polygon fill="#000000" points="202.58,340.26,196.1929,343.6074,196.8263,350.7906,203.2133,347.4432,202.58,340.26" style="stroke:#000000;stroke-width:1;"/><text fill="#000000" font-family="Times New Roman" font-size="13" lengthAdjust="spacing" textLength="8.271" x="190.45" y="360.0492">1</text><text fill="#000000" font-family="Times New Roman" font-size="13" lengthAdjust="spacing" textLength="36.5625" x="117.4278" y="422.3073">many</text></g><!--reverse link Question to Option--><g class="link" data-entity-1="Question" data-entity-2="Option" data-source-line="56" data-uid="lnk8" id="link_Question_Option"><path codeLine="56" d="M122.47,554.72 C122.47,579.23 122.47,595.94 122.47,619.39" fill="none" id="Question-backto-Option" style="stroke:#000000;stroke-width:1;"/><polygon fill="#000000" points="122.47,542.72,118.47,548.72,122.47,554.72,126.47,548.72,122.47,542.72" style="stroke:#000000;stroke-width:1;"/><text fill="#000000" font-family="Times New Roman" font-size="13" lengthAdjust="spacing" textLength="8.271" x="113.9986" y="562.3959">1</text><text fill="#000000" font-family="Times New Roman" font-size="13" lengthAdjust="spacing" textLength="36.5625" x="83.9783" y="608.8295">many</text></g><!--link PsychTestFragment to PsychTest--><g class="link" data-entity-1="PsychTestFragment" data-entity-2="PsychTest" data-source-line="57" data-uid="lnk9" id="link_PsychTestFragment_PsychTest"><path codeLine="57" d="M236.47,137.8 C236.47,162.07 236.47,183.84 236.47,208.11" fill="none" id="PsychTestFragment-to-PsychTest" style="stroke:#000000;stroke-width:1;"/><polygon fill="#000000" points="236.47,214.11,240.47,205.11,236.47,209.11,232.47,205.11,236.47,214.11" style="stroke:#000000;stroke-width:1;"/><text fill="#000000" font-family="Times New Roman" font-size="13" lengthAdjust="spacing" textLength="52.9331" x="237.47" y="180.5469">displays</text></g><!--link PsychTest to TestResult--><g class="link" data-entity-1="PsychTest" data-entity-2="TestResult" data-source-line="58" data-uid="lnk10" id="link_PsychTest_TestResult"><path codeLine="58" d="M270.37,340.26 C283.5,364.28 295.7127,386.6449 309.2327,411.3849" fill="none" id="PsychTest-to-TestResult" style="stroke:#000000;stroke-width:1;"/><polygon fill="#000000" points="312.11,416.65,311.3041,406.8342,309.7123,412.2624,304.284,410.6705,312.11,416.65" style="stroke:#000000;stroke-width:1;"/><text fill="#000000" font-family="Times New Roman" font-size="13" lengthAdjust="spacing" textLength="65.6665" x="294.47" y="383.0369">generates</text></g><!--SRC=[dLHDRzGm4Btlhp0v5L0ak4QeqXQfKYKeqAtWxDhJnAhZ2UC9qOBwtvciiud9KWJav7dpPjvyAS-uWHPKvxKBc_ZWGgT9jwh5WAOX51TJ3vd7mhtkFLzYu6ijxkBMjH3LDGpg1biTYenhl8vnoqpkhcUuCXXsxZkeLnabDjhYu4AjxhMFi5b7gnyR9T-5DWyrOH_iM_H8walZ6987oG8bzC8BxO1kYN38mSUJpF_HmT-7x1W8aFVTds8sgSEFSM-QMuWyzLegPolbCTIJoOuzL6edLSoOXMZ8TUmmh3nVUqabSApKEnVvpQV9FZ_uNogZlUczPhY1A8iyUrwfKJnPuvnILSUmfugIPJ84NebZbqj_w7BX6dW77Wo3JOvHEhqMsMJ_csWqI38V5xBobvQUdAemhdw5-WYqWhBSKnQfW3e2rh-PFOyhPjrsKux7anrVagvRQM6kolH4Oe- -Qg5bDNvsCBn72pxjQJQdgOeS7QB7QNv3PuzuVzSwteOu09sbgQu83GxJ2Ip3EbAayEKiYzU5Ub6Mgf2htHVpPMpc4raHffsUzboMvzcrLygwA3-UVSoqHagskqgk9W39jSQV]--></g></svg>