<svg xmlns="http://www.w3.org/2000/svg" xmlns:xlink="http://www.w3.org/1999/xlink" contentStyleType="text/css" data-diagram-type="CLASS" height="719px" preserveAspectRatio="none" style="width:537px;height:719px;background:#FFFFFF;" version="1.1" viewBox="0 0 537 719" width="537px" zoomAndPan="magnify"><defs/><g><!--class User--><g class="entity" data-entity="User" data-source-line="18" data-uid="ent0002" id="entity_User"><rect fill="#FFFFFF" height="125.4844" rx="2.5" ry="2.5" style="stroke:#000000;stroke-width:1;" width="168.0508" x="186.96" y="586.86"/><ellipse cx="251.2803" cy="600.86" fill="#FFFFFF" rx="9" ry="9" style="stroke:#000000;stroke-width:1;"/><path d="M254.2491,606.5006 Q253.6709,606.7975 253.0303,606.9381 Q252.3897,607.0944 251.6866,607.0944 Q249.1866,607.0944 247.8584,605.4538 Q246.5459,603.7975 246.5459,600.6725 Q246.5459,597.5475 247.8584,595.8913 Q249.1866,594.235 251.6866,594.235 Q252.3897,594.235 253.0303,594.3913 Q253.6866,594.5475 254.2491,594.8444 L254.2491,597.5631 Q253.6241,596.985 253.0303,596.7194 Q252.4366,596.4381 251.8116,596.4381 Q250.4678,596.4381 249.7803,597.5163 Q249.0928,598.5788 249.0928,600.6725 Q249.0928,602.7663 249.7803,603.8444 Q250.4678,604.9069 251.8116,604.9069 Q252.4366,604.9069 253.0303,604.6413 Q253.6241,604.36 254.2491,603.7819 L254.2491,606.5006 Z " fill="#000000"/><text fill="#000000" font-family="Times New Roman" font-size="14" lengthAdjust="spacing" textLength="31.9102" x="268.7803" y="605.7067">User</text><line style="stroke:#000000;stroke-width:1;" x1="187.96" x2="354.0108" y1="614.86" y2="614.86"/><text fill="#000000" font-family="Times New Roman" font-size="14" lengthAdjust="spacing" textLength="57.21" x="192.96" y="631.8551">-id: long</text><text fill="#000000" font-family="Times New Roman" font-size="14" lengthAdjust="spacing" textLength="126.2393" x="192.96" y="648.152">-username: String</text><text fill="#000000" font-family="Times New Roman" font-size="14" lengthAdjust="spacing" textLength="156.0508" x="192.96" y="664.4489">-phoneNumber: String</text><text fill="#000000" font-family="Times New Roman" font-size="14" lengthAdjust="spacing" textLength="122.7119" x="192.96" y="680.7457">-password: String</text><line style="stroke:#000000;stroke-width:1;" x1="187.96" x2="354.0108" y1="688.0475" y2="688.0475"/><text fill="#000000" font-family="Times New Roman" font-size="14" lengthAdjust="spacing" textLength="126.0615" x="192.96" y="705.0426">+getters/setters()</text></g><!--class LoginActivity--><g class="entity" data-entity="LoginActivity" data-source-line="26" data-uid="ent0003" id="entity_LoginActivity"><rect fill="#FFFFFF" height="109.1875" rx="2.5" ry="2.5" style="stroke:#000000;stroke-width:1;" width="241.9746" x="12" y="12"/><ellipse cx="83.9287" cy="26" fill="#FFFFFF" rx="9" ry="9" style="stroke:#000000;stroke-width:1;"/><path d="M86.8975,31.6406 Q86.3193,31.9375 85.6787,32.0781 Q85.0381,32.2344 84.335,32.2344 Q81.835,32.2344 80.5068,30.5938 Q79.1943,28.9375 79.1943,25.8125 Q79.1943,22.6875 80.5068,21.0313 Q81.835,19.375 84.335,19.375 Q85.0381,19.375 85.6787,19.5313 Q86.335,19.6875 86.8975,19.9844 L86.8975,22.7031 Q86.2725,22.125 85.6787,21.8594 Q85.085,21.5781 84.46,21.5781 Q83.1162,21.5781 82.4287,22.6563 Q81.7412,23.7188 81.7412,25.8125 Q81.7412,27.9063 82.4287,28.9844 Q83.1162,30.0469 84.46,30.0469 Q85.085,30.0469 85.6787,29.7813 Q86.2725,29.5 86.8975,28.9219 L86.8975,31.6406 Z " fill="#000000"/><text fill="#000000" font-family="Times New Roman" font-size="14" lengthAdjust="spacing" textLength="90.6172" x="101.4287" y="30.8467">LoginActivity</text><line style="stroke:#000000;stroke-width:1;" x1="13" x2="252.9746" y1="40" y2="40"/><text fill="#000000" font-family="Times New Roman" font-size="14" lengthAdjust="spacing" textLength="229.9746" x="18" y="56.9951">-authViewModel: AuthViewModel</text><line style="stroke:#000000;stroke-width:1;" x1="13" x2="252.9746" y1="64.2969" y2="64.2969"/><text fill="#000000" font-family="Times New Roman" font-size="14" lengthAdjust="spacing" textLength="125.7129" x="18" y="81.292">+onCreate(): void</text><text fill="#000000" font-family="Times New Roman" font-size="14" lengthAdjust="spacing" textLength="150.2607" x="18" y="97.5889">+onLoginClick(): void</text><text fill="#000000" font-family="Times New Roman" font-size="14" lengthAdjust="spacing" textLength="198.0303" x="18" y="113.8857">+navigateToRegister(): void</text></g><!--class RegisterActivity--><g class="entity" data-entity="RegisterActivity" data-source-line="33" data-uid="ent0004" id="entity_RegisterActivity"><rect fill="#FFFFFF" height="109.1875" rx="2.5" ry="2.5" style="stroke:#000000;stroke-width:1;" width="241.9746" x="289" y="12"/><ellipse cx="350.8013" cy="26" fill="#FFFFFF" rx="9" ry="9" style="stroke:#000000;stroke-width:1;"/><path d="M353.77,31.6406 Q353.1919,31.9375 352.5513,32.0781 Q351.9106,32.2344 351.2075,32.2344 Q348.7075,32.2344 347.3794,30.5938 Q346.0669,28.9375 346.0669,25.8125 Q346.0669,22.6875 347.3794,21.0313 Q348.7075,19.375 351.2075,19.375 Q351.9106,19.375 352.5513,19.5313 Q353.2075,19.6875 353.77,19.9844 L353.77,22.7031 Q353.145,22.125 352.5513,21.8594 Q351.9575,21.5781 351.3325,21.5781 Q349.9888,21.5781 349.3013,22.6563 Q348.6138,23.7188 348.6138,25.8125 Q348.6138,27.9063 349.3013,28.9844 Q349.9888,30.0469 351.3325,30.0469 Q351.9575,30.0469 352.5513,29.7813 Q353.145,29.5 353.77,28.9219 L353.77,31.6406 Z " fill="#000000"/><text fill="#000000" font-family="Times New Roman" font-size="14" lengthAdjust="spacing" textLength="110.8721" x="368.3013" y="30.8467">RegisterActivity</text><line style="stroke:#000000;stroke-width:1;" x1="290" x2="529.9746" y1="40" y2="40"/><text fill="#000000" font-family="Times New Roman" font-size="14" lengthAdjust="spacing" textLength="229.9746" x="295" y="56.9951">-authViewModel: AuthViewModel</text><line style="stroke:#000000;stroke-width:1;" x1="290" x2="529.9746" y1="64.2969" y2="64.2969"/><text fill="#000000" font-family="Times New Roman" font-size="14" lengthAdjust="spacing" textLength="125.7129" x="295" y="81.292">+onCreate(): void</text><text fill="#000000" font-family="Times New Roman" font-size="14" lengthAdjust="spacing" textLength="170.5156" x="295" y="97.5889">+onRegisterClick(): void</text><text fill="#000000" font-family="Times New Roman" font-size="14" lengthAdjust="spacing" textLength="180.2568" x="295" y="113.8857">+validateInput(): boolean</text></g><!--class AuthViewModel--><g class="entity" data-entity="AuthViewModel" data-source-line="40" data-uid="ent0005" id="entity_AuthViewModel"><rect fill="#FFFFFF" height="109.1875" rx="2.5" ry="2.5" style="stroke:#000000;stroke-width:1;" width="355.123" x="93.43" y="198.18"/><ellipse cx="213.053" cy="212.18" fill="#FFFFFF" rx="9" ry="9" style="stroke:#000000;stroke-width:1;"/><path d="M216.0218,217.8206 Q215.4437,218.1175 214.803,218.2581 Q214.1624,218.4144 213.4593,218.4144 Q210.9593,218.4144 209.6312,216.7738 Q208.3187,215.1175 208.3187,211.9925 Q208.3187,208.8675 209.6312,207.2113 Q210.9593,205.555 213.4593,205.555 Q214.1624,205.555 214.803,205.7113 Q215.4593,205.8675 216.0218,206.1644 L216.0218,208.8831 Q215.3968,208.305 214.803,208.0394 Q214.2093,207.7581 213.5843,207.7581 Q212.2405,207.7581 211.553,208.8363 Q210.8655,209.8988 210.8655,211.9925 Q210.8655,214.0863 211.553,215.1644 Q212.2405,216.2269 213.5843,216.2269 Q214.2093,216.2269 214.803,215.9613 Q215.3968,215.68 216.0218,215.1019 L216.0218,217.8206 Z " fill="#000000"/><text fill="#000000" font-family="Times New Roman" font-size="14" lengthAdjust="spacing" textLength="108.377" x="230.553" y="217.0267">AuthViewModel</text><line style="stroke:#000000;stroke-width:1;" x1="94.43" x2="447.553" y1="226.18" y2="226.18"/><text fill="#000000" font-family="Times New Roman" font-size="14" lengthAdjust="spacing" textLength="228.9902" x="99.43" y="243.1751">-authRepository: AuthRepository</text><text fill="#000000" font-family="Times New Roman" font-size="14" lengthAdjust="spacing" textLength="340.3545" x="99.43" y="259.472">-_loginResult: MutableLiveData&lt;Result&lt;User&gt;&gt;</text><line style="stroke:#000000;stroke-width:1;" x1="94.43" x2="447.553" y1="266.7738" y2="266.7738"/><text fill="#000000" font-family="Times New Roman" font-size="14" lengthAdjust="spacing" textLength="343.123" x="99.43" y="283.7689">+login(String, String): LiveData&lt;Result&lt;User&gt;&gt;</text><text fill="#000000" font-family="Times New Roman" font-size="14" lengthAdjust="spacing" textLength="302.7637" x="99.43" y="300.0657">+register(User): LiveData&lt;Result&lt;User&gt;&gt;</text></g><!--class AuthRepository--><g class="entity" data-entity="AuthRepository" data-source-line="47" data-uid="ent0006" id="entity_AuthRepository"><rect fill="#FFFFFF" height="125.4844" rx="2.5" ry="2.5" style="stroke:#000000;stroke-width:1;" width="234.209" x="153.88" y="384.37"/><ellipse cx="213.2921" cy="398.37" fill="#FFFFFF" rx="9" ry="9" style="stroke:#000000;stroke-width:1;"/><path d="M216.2609,404.0106 Q215.6827,404.3075 215.0421,404.4481 Q214.4015,404.6044 213.6984,404.6044 Q211.1984,404.6044 209.8702,402.9638 Q208.5577,401.3075 208.5577,398.1825 Q208.5577,395.0575 209.8702,393.4013 Q211.1984,391.745 213.6984,391.745 Q214.4015,391.745 215.0421,391.9013 Q215.6984,392.0575 216.2609,392.3544 L216.2609,395.0731 Q215.6359,394.495 215.0421,394.2294 Q214.4484,393.9481 213.8234,393.9481 Q212.4796,393.9481 211.7921,395.0263 Q211.1046,396.0888 211.1046,398.1825 Q211.1046,400.2763 211.7921,401.3544 Q212.4796,402.4169 213.8234,402.4169 Q214.4484,402.4169 215.0421,402.1513 Q215.6359,401.87 216.2609,401.2919 L216.2609,404.0106 Z " fill="#000000"/><text fill="#000000" font-family="Times New Roman" font-size="14" lengthAdjust="spacing" textLength="107.8848" x="230.7921" y="403.2167">AuthRepository</text><line style="stroke:#000000;stroke-width:1;" x1="154.88" x2="387.089" y1="412.37" y2="412.37"/><text fill="#000000" font-family="Times New Roman" font-size="14" lengthAdjust="spacing" textLength="161.4102" x="159.88" y="429.3651">-apiService: ApiService</text><text fill="#000000" font-family="Times New Roman" font-size="14" lengthAdjust="spacing" textLength="132.5146" x="159.88" y="445.662">-userDao: UserDao</text><line style="stroke:#000000;stroke-width:1;" x1="154.88" x2="387.089" y1="452.9638" y2="452.9638"/><text fill="#000000" font-family="Times New Roman" font-size="14" lengthAdjust="spacing" textLength="222.209" x="159.88" y="469.9589">+loginUser(String, String): User</text><text fill="#000000" font-family="Times New Roman" font-size="14" lengthAdjust="spacing" textLength="181.8496" x="159.88" y="486.2557">+registerUser(User): User</text><text fill="#000000" font-family="Times New Roman" font-size="14" lengthAdjust="spacing" textLength="206.7461" x="159.88" y="502.5526">+saveUserLocally(User): void</text></g><!--link LoginActivity to AuthViewModel--><g class="link" data-entity-1="LoginActivity" data-entity-2="AuthViewModel" data-source-line="55" data-uid="lnk7" id="link_LoginActivity_AuthViewModel"><path codeLine="55" d="M173.27,121.36 C191.33,145.46 208.9929,169.0278 227.0529,193.1378" fill="none" id="LoginActivity-to-AuthViewModel" style="stroke:#000000;stroke-width:1;"/><polygon fill="#000000" points="230.65,197.94,228.4557,188.3387,227.6524,193.9382,222.0529,193.1349,230.65,197.94" style="stroke:#000000;stroke-width:1;"/><text fill="#000000" font-family="Times New Roman" font-size="13" lengthAdjust="spacing" textLength="29.7832" x="207.99" y="164.2469">uses</text></g><!--link RegisterActivity to AuthViewModel--><g class="link" data-entity-1="RegisterActivity" data-entity-2="AuthViewModel" data-source-line="56" data-uid="lnk8" id="link_RegisterActivity_AuthViewModel"><path codeLine="56" d="M369.41,121.36 C351.22,145.46 333.4237,169.0403 315.2337,193.1503" fill="none" id="RegisterActivity-to-AuthViewModel" style="stroke:#000000;stroke-width:1;"/><polygon fill="#000000" points="311.62,197.94,320.2336,193.1645,314.6314,193.9486,313.8473,188.3463,311.62,197.94" style="stroke:#000000;stroke-width:1;"/><text fill="#000000" font-family="Times New Roman" font-size="13" lengthAdjust="spacing" textLength="29.7832" x="344.99" y="164.2469">uses</text></g><!--link AuthViewModel to AuthRepository--><g class="link" data-entity-1="AuthViewModel" data-entity-2="AuthRepository" data-source-line="57" data-uid="lnk9" id="link_AuthViewModel_AuthRepository"><path codeLine="57" d="M270.99,307.87 C270.99,331.53 270.99,353.43 270.99,377.95" fill="none" id="AuthViewModel-to-AuthRepository" style="stroke:#000000;stroke-width:1;"/><polygon fill="#000000" points="270.99,383.95,274.99,374.95,270.99,378.95,266.99,374.95,270.99,383.95" style="stroke:#000000;stroke-width:1;"/><text fill="#000000" font-family="Times New Roman" font-size="13" lengthAdjust="spacing" textLength="29.7832" x="271.99" y="350.4369">uses</text></g><!--link AuthRepository to User--><g class="link" data-entity-1="AuthRepository" data-entity-2="User" data-source-line="58" data-uid="lnk10" id="link_AuthRepository_User"><path codeLine="58" d="M270.99,510.17 C270.99,534.44 270.99,556.21 270.99,580.48" fill="none" id="AuthRepository-to-User" style="stroke:#000000;stroke-width:1;"/><polygon fill="#000000" points="270.99,586.48,274.99,577.48,270.99,581.48,266.99,577.48,270.99,586.48" style="stroke:#000000;stroke-width:1;"/><text fill="#000000" font-family="Times New Roman" font-size="13" lengthAdjust="spacing" textLength="59.8584" x="271.99" y="552.9269">manages</text></g><!--SRC=[hLDDRzim3BtxLsWzfTY2xMmK0T8K0mgaEIJTTXmOcxM9oA8XoJQoOVzzahyYEsin3FF5qdkFr2D5lRCv5YXA2QIYo9n8bQ2X40KhJdBDZhEwme19yGKgQJ-piZjmzCqp5MZ43XknvmBKJQ1D91YpjbRJiRBucB0wq0yKdmA9oI7bXbGcNa0QZERHucSat7SFoIdJNAbqmvAr-9QJnOvXdQBkq7lfP2swrfgR4FnrbVaVAlZxa8D5ZMpFvLinKLVX5uEwBtCfA8s5P9NrsyfnoaN7uk0yZ72Piy9TLHnHpncNiN4jcS3lHORMEJ8VJVTVtFg6TCTlEIErJYpLPC-Z3wXi_fMmUU8KPIpMuRRFoMgZ4ImkRcDHCwKZt6RSI4fECqf1JPcBUEOzPcISar4msXcO_-feIFedKpL8IbtGeoehwxaZiqHG5qkJeoP-zbYo8Slwt1cwx7lHT-bxiKVZdamidYeBHubRgl41BDnr-9qVWDMgjzC6BBhB-z1VeZFrPemUkkdHryMJWYvMBnMLT41TK-B6RJskWqby08xRSNMBqAw7hYrxT6Qm5VOc0zf0ZNwxvGIaF0-AOJ2c4xfShcOt4djp9hgQd5ULKt2G1Hq9T07gXUrZZOLxlv2X-Gq0]--></g></svg>