<?xml version="1.0" encoding="UTF-8" standalone="no"?>
<svg xmlns="http://www.w3.org/2000/svg" width="1000" height="350">
    <!-- 系统名称 -->
    <rect x="435" y="20" width="150" height="40" fill="white" stroke="black" stroke-width="2"/>
    <text x="510" y="45" text-anchor="middle" font-family="宋体" font-size="14" fill="black">小蓝猫大学生心理助手</text>
    
    <!-- 连接线 -->
    <line x1="510" y1="60" x2="510" y2="80" stroke="black" stroke-width="2"/>
    <line x1="270" y1="80" x2="750" y2="80" stroke="black" stroke-width="2"/>
    <line x1="270" y1="80" x2="270" y2="100" stroke="black" stroke-width="2"/>
    <line x1="390" y1="80" x2="390" y2="100" stroke="black" stroke-width="2"/>
    <line x1="510" y1="80" x2="510" y2="100" stroke="black" stroke-width="2"/>
    <line x1="630" y1="80" x2="630" y2="100" stroke="black" stroke-width="2"/>
    <line x1="750" y1="80" x2="750" y2="100" stroke="black" stroke-width="2"/>

    <!-- 主要功能模块 -->
    <rect x="250" y="100" width="40" height="100" fill="white" stroke="black" stroke-width="2"/>
    <text x="270" y="120" text-anchor="middle" font-family="宋体" font-size="12" fill="black">登</text>
    <text x="270" y="140" text-anchor="middle" font-family="宋体" font-size="12" fill="black">陆</text>
    <text x="270" y="160" text-anchor="middle" font-family="宋体" font-size="12" fill="black">注</text>
    <text x="270" y="180" text-anchor="middle" font-family="宋体" font-size="12" fill="black">册</text>
    
    <rect x="370" y="100" width="40" height="100" fill="white" stroke="black" stroke-width="2"/>
    <text x="390" y="120" text-anchor="middle" font-family="宋体" font-size="12" fill="black">A</text>
    <text x="390" y="140" text-anchor="middle" font-family="宋体" font-size="12" fill="black">I</text>
    <text x="390" y="160" text-anchor="middle" font-family="宋体" font-size="12" fill="black">咨</text>
    <text x="390" y="180" text-anchor="middle" font-family="宋体" font-size="12" fill="black">询</text>
    
    <rect x="490" y="100" width="40" height="100" fill="white" stroke="black" stroke-width="2"/>
    <text x="510" y="120" text-anchor="middle" font-family="宋体" font-size="12" fill="black">心</text>
    <text x="510" y="140" text-anchor="middle" font-family="宋体" font-size="12" fill="black">理</text>
    <text x="510" y="160" text-anchor="middle" font-family="宋体" font-size="12" fill="black">测</text>
    <text x="510" y="180" text-anchor="middle" font-family="宋体" font-size="12" fill="black">试</text>
    
    <rect x="610" y="100" width="40" height="100" fill="white" stroke="black" stroke-width="2"/>
    <text x="630" y="120" text-anchor="middle" font-family="宋体" font-size="12" fill="black">心</text>
    <text x="630" y="140" text-anchor="middle" font-family="宋体" font-size="12" fill="black">理</text>
    <text x="630" y="160" text-anchor="middle" font-family="宋体" font-size="12" fill="black">资</text>
    <text x="630" y="180" text-anchor="middle" font-family="宋体" font-size="12" fill="black">讯</text>

    <rect x="730" y="100" width="40" height="100" fill="white" stroke="black" stroke-width="2"/>
    <text x="750" y="120" text-anchor="middle" font-family="宋体" font-size="12" fill="black">个</text>
    <text x="750" y="140" text-anchor="middle" font-family="宋体" font-size="12" fill="black">人</text>
    <text x="750" y="160" text-anchor="middle" font-family="宋体" font-size="12" fill="black">中</text>
    <text x="750" y="180" text-anchor="middle" font-family="宋体" font-size="12" fill="black">心</text>

    <!-- 连接线到子功能 -->
    <line x1="270" y1="200" x2="270" y2="220" stroke="black" stroke-width="2"/>
    <line x1="390" y1="200" x2="390" y2="220" stroke="black" stroke-width="2"/>
    <line x1="510" y1="200" x2="510" y2="220" stroke="black" stroke-width="2"/>
    <line x1="630" y1="200" x2="630" y2="220" stroke="black" stroke-width="2"/>
    <line x1="750" y1="200" x2="750" y2="220" stroke="black" stroke-width="2"/>

    <!-- 登录注册子功能 -->
    <line x1="240" y1="220" x2="300" y2="220" stroke="black" stroke-width="2"/>
    <line x1="240" y1="220" x2="240" y2="240" stroke="black" stroke-width="2"/>
    <line x1="300" y1="220" x2="300" y2="240" stroke="black" stroke-width="2"/>
    
    <rect x="220" y="240" width="40" height="100" fill="white" stroke="black" stroke-width="2"/>
    <text x="240" y="265" text-anchor="middle" font-family="宋体" font-size="12" fill="black">账</text>
    <text x="240" y="285" text-anchor="middle" font-family="宋体" font-size="12" fill="black">号</text>
    <text x="240" y="305" text-anchor="middle" font-family="宋体" font-size="12" fill="black">登</text>
    <text x="240" y="325" text-anchor="middle" font-family="宋体" font-size="12" fill="black">录</text>
    
    <rect x="280" y="240" width="40" height="100" fill="white" stroke="black" stroke-width="2"/>
    <text x="300" y="265" text-anchor="middle" font-family="宋体" font-size="12" fill="black">账</text>
    <text x="300" y="285" text-anchor="middle" font-family="宋体" font-size="12" fill="black">号</text>
    <text x="300" y="305" text-anchor="middle" font-family="宋体" font-size="12" fill="black">注</text>
    <text x="300" y="325" text-anchor="middle" font-family="宋体" font-size="12" fill="black">册</text>

    <!-- AI咨询子功能 -->
    <line x1="360" y1="220" x2="420" y2="220" stroke="black" stroke-width="2"/>
    <line x1="360" y1="220" x2="360" y2="240" stroke="black" stroke-width="2"/>
    <line x1="420" y1="220" x2="420" y2="240" stroke="black" stroke-width="2"/>
    
    <rect x="340" y="240" width="40" height="100" fill="white" stroke="black" stroke-width="2"/>
    <text x="360" y="265" text-anchor="middle" font-family="宋体" font-size="12" fill="black">A</text>
    <text x="360" y="285" text-anchor="middle" font-family="宋体" font-size="12" fill="black">I</text>
    <text x="360" y="305" text-anchor="middle" font-family="宋体" font-size="12" fill="black">对</text>
    <text x="360" y="325" text-anchor="middle" font-family="宋体" font-size="12" fill="black">话</text>
    
    <rect x="400" y="240" width="40" height="100" fill="white" stroke="black" stroke-width="2"/>
    <text x="420" y="265" text-anchor="middle" font-family="宋体" font-size="12" fill="black">历</text>
    <text x="420" y="285" text-anchor="middle" font-family="宋体" font-size="12" fill="black">史</text>
    <text x="420" y="305" text-anchor="middle" font-family="宋体" font-size="12" fill="black">记</text>
    <text x="420" y="325" text-anchor="middle" font-family="宋体" font-size="12" fill="black">录</text>

    <!-- 心理测试子功能 -->
    <line x1="480" y1="220" x2="540" y2="220" stroke="black" stroke-width="2"/>
    <line x1="480" y1="220" x2="480" y2="240" stroke="black" stroke-width="2"/>
    <line x1="540" y1="220" x2="540" y2="240" stroke="black" stroke-width="2"/>
    
    <rect x="460" y="240" width="40" height="100" fill="white" stroke="black" stroke-width="2"/>
    <text x="480" y="265" text-anchor="middle" font-family="宋体" font-size="12" fill="black">M</text>
    <text x="480" y="285" text-anchor="middle" font-family="宋体" font-size="12" fill="black">B</text>
    <text x="480" y="305" text-anchor="middle" font-family="宋体" font-size="12" fill="black">T</text>
    <text x="480" y="325" text-anchor="middle" font-family="宋体" font-size="12" fill="black">I</text>
    
    <rect x="520" y="240" width="40" height="100" fill="white" stroke="black" stroke-width="2"/>
    <text x="540" y="265" text-anchor="middle" font-family="宋体" font-size="12" fill="black">S</text>
    <text x="540" y="285" text-anchor="middle" font-family="宋体" font-size="12" fill="black">C</text>
    <text x="540" y="305" text-anchor="middle" font-family="宋体" font-size="12" fill="black">L</text>
    <text x="540" y="325" text-anchor="middle" font-family="宋体" font-size="12" fill="black">90</text>

    <!-- 心理资讯子功能 -->
    <line x1="600" y1="220" x2="660" y2="220" stroke="black" stroke-width="2"/>
    <line x1="600" y1="220" x2="600" y2="240" stroke="black" stroke-width="2"/>
    <line x1="660" y1="220" x2="660" y2="240" stroke="black" stroke-width="2"/>
    
    <rect x="580" y="240" width="40" height="100" fill="white" stroke="black" stroke-width="2"/>
    <text x="600" y="265" text-anchor="middle" font-family="宋体" font-size="12" fill="black">心</text>
    <text x="600" y="285" text-anchor="middle" font-family="宋体" font-size="12" fill="black">理</text>
    <text x="600" y="305" text-anchor="middle" font-family="宋体" font-size="12" fill="black">资</text>
    <text x="600" y="325" text-anchor="middle" font-family="宋体" font-size="12" fill="black">讯</text>
    
    <rect x="640" y="240" width="40" height="100" fill="white" stroke="black" stroke-width="2"/>
    <text x="660" y="265" text-anchor="middle" font-family="宋体" font-size="12" fill="black">跳</text>
    <text x="660" y="285" text-anchor="middle" font-family="宋体" font-size="12" fill="black">转</text>
    <text x="660" y="305" text-anchor="middle" font-family="宋体" font-size="12" fill="black">详</text>
    <text x="660" y="325" text-anchor="middle" font-family="宋体" font-size="12" fill="black">情</text>

    <!-- 个人中心子功能 -->
    <line x1="720" y1="220" x2="780" y2="220" stroke="black" stroke-width="2"/>
    <line x1="720" y1="220" x2="720" y2="240" stroke="black" stroke-width="2"/>
    <line x1="780" y1="220" x2="780" y2="240" stroke="black" stroke-width="2"/>
    
    <rect x="700" y="240" width="40" height="100" fill="white" stroke="black" stroke-width="2"/>
    <text x="720" y="265" text-anchor="middle" font-family="宋体" font-size="12" fill="black">信</text>
    <text x="720" y="285" text-anchor="middle" font-family="宋体" font-size="12" fill="black">息</text>
    <text x="720" y="305" text-anchor="middle" font-family="宋体" font-size="12" fill="black">管</text>
    <text x="720" y="325" text-anchor="middle" font-family="宋体" font-size="12" fill="black">理</text>
    
    <rect x="760" y="240" width="40" height="100" fill="white" stroke="black" stroke-width="2"/>
    <text x="780" y="265" text-anchor="middle" font-family="宋体" font-size="12" fill="black">退</text>
    <text x="780" y="285" text-anchor="middle" font-family="宋体" font-size="12" fill="black">出</text>
    <text x="780" y="305" text-anchor="middle" font-family="宋体" font-size="12" fill="black">登</text>
    <text x="780" y="325" text-anchor="middle" font-family="宋体" font-size="12" fill="black">录</text>

</svg> 