<?xml version="1.0" encoding="UTF-8" standalone="no"?>
<svg width="800" height="600" xmlns="http://www.w3.org/2000/svg" xmlns:xlink="http://www.w3.org/1999/xlink">
  <style>
    @font-face { font-family: "SimSun"; src: local("SimSun"); }
    @font-face { font-family: "Times New Roman"; src: local("Times New Roman"); }
    .title { font-family: "SimSun", serif; font-size: 16px; font-weight: bold; text-anchor: middle; }
    .node-text { font-family: "SimSun", serif; font-size: 12px; text-anchor: middle; }
    .node { fill: #fff; stroke: #000; stroke-width: 1.5; }
    .decision { fill: #fff; stroke: #000; stroke-width: 1.5; }
    .start-end { fill: #fff; stroke: #000; stroke-width: 1.5; }
    .arrow { stroke: #000; stroke-width: 1.5; fill: none; marker-end: url(#arrowhead); }
    .arrow-text { font-family: "SimSun", serif; font-size: 11px; text-anchor: middle; }
  </style>
  <defs>
    <marker id="arrowhead" markerWidth="10" markerHeight="7" refX="9" refY="3.5" orient="auto">
      <polygon points="0 0, 10 3.5, 0 7" />
    </marker>
  </defs>

  <!-- 开始节点 -->
  <ellipse cx="400" cy="60" rx="60" ry="25" class="start-end" />
  <text x="400" y="65" class="node-text">开始</text>
  <!-- 加载用户信息 -->
  <rect x="325" y="110" width="150" height="40" rx="5" ry="5" class="node" />
  <text x="400" y="135" class="node-text">加载用户信息</text>
  <!-- 信息修改 -->
  <rect x="325" y="180" width="150" height="40" rx="5" ry="5" class="node" />
  <text x="400" y="205" class="node-text">修改个人信息</text>
  <!-- 头像上传 -->
  <rect x="325" y="250" width="150" height="40" rx="5" ry="5" class="node" />
  <text x="400" y="275" class="node-text">上传头像</text>
  <!-- 密码修改 -->
  <rect x="325" y="320" width="150" height="40" rx="5" ry="5" class="node" />
  <text x="400" y="345" class="node-text">修改密码</text>
  <!-- 退出登录 -->
  <rect x="325" y="390" width="150" height="40" rx="5" ry="5" class="node" />
  <text x="400" y="415" class="node-text">退出登录</text>
  <!-- 结束节点 -->
  <ellipse cx="400" cy="480" rx="60" ry="25" class="start-end" />
  <text x="400" y="485" class="node-text">结束</text>
  <!-- 连线 -->
  <path d="M400,85 L400,110" class="arrow" />
  <path d="M400,150 L400,180" class="arrow" />
  <path d="M400,220 L400,250" class="arrow" />
  <path d="M400,290 L400,320" class="arrow" />
  <path d="M400,360 L400,390" class="arrow" />
  <path d="M400,430 L400,480" class="arrow" />
</svg> 